<svg width="375" height="812" viewBox="0 0 375 812" fill="none" xmlns="http://www.w3.org/2000/svg">
<g clip-path="url(#clip0_1_442)">
<mask id="mask0_1_442" style="mask-type:luminance" maskUnits="userSpaceOnUse" x="0" y="0" width="375" height="812">
<path d="M350 0H25C11.1929 0 0 11.1929 0 25V787C0 800.807 11.1929 812 25 812H350C363.807 812 375 800.807 375 787V25C375 11.1929 363.807 0 350 0Z" fill="white"/>
</mask>
<g mask="url(#mask0_1_442)">
<path d="M350 0H25C11.1929 0 0 11.1929 0 25V787C0 800.807 11.1929 812 25 812H350C363.807 812 375 800.807 375 787V25C375 11.1929 363.807 0 350 0Z" fill="#FAF9FF"/>
<path d="M37.2146 17.1675C34.9222 17.1675 33.2889 18.7349 33.2889 20.8809V20.8955C33.2889 22.9023 34.7098 24.3818 36.7386 24.3818C38.1888 24.3818 39.1116 23.6421 39.4998 22.8071H39.6463C39.6463 22.8877 39.639 22.9683 39.639 23.0488C39.5584 25.0703 38.8479 26.7109 37.1707 26.7109C36.2405 26.7109 35.5887 26.2275 35.3104 25.4878L35.2884 25.4146H33.428L33.4427 25.4951C33.7796 27.1138 35.2298 28.2637 37.1707 28.2637C39.8294 28.2637 41.4334 26.1543 41.4334 22.5947V22.5801C41.4334 18.7715 39.4705 17.1675 37.2146 17.1675ZM37.2073 22.9316C36.0062 22.9316 35.1346 22.0527 35.1346 20.8296V20.8149C35.1346 19.6357 36.0647 18.7056 37.2293 18.7056C38.4012 18.7056 39.3167 19.6504 39.3167 20.8589V20.8735C39.3167 22.0674 38.4012 22.9316 37.2073 22.9316ZM44.4586 21.1519C45.1324 21.1519 45.6231 20.6392 45.6231 19.9946C45.6231 19.3428 45.1324 18.8374 44.4586 18.8374C43.7921 18.8374 43.294 19.3428 43.294 19.9946C43.294 20.6392 43.7921 21.1519 44.4586 21.1519ZM44.4586 26.5864C45.1324 26.5864 45.6231 26.0811 45.6231 25.4292C45.6231 24.7773 45.1324 24.272 44.4586 24.272C43.7921 24.272 43.294 24.7773 43.294 25.4292C43.294 26.0811 43.7921 26.5864 44.4586 26.5864ZM52.6107 28H54.4198V25.9712H55.8407V24.4111H54.4198V17.4312H51.7465C50.3109 19.6138 48.8095 22.0454 47.4398 24.4258V25.9712H52.6107V28ZM49.1977 24.4551V24.3452C50.223 22.5508 51.4462 20.5952 52.5302 18.9399H52.64V24.4551H49.1977ZM59.9206 28H61.8103V17.4312H59.9279L57.1667 19.3721V21.1519L59.7961 19.2915H59.9206V28Z" fill="#1E1E1E"/>
<path opacity="0.35" d="M355.666 17.8333H339C337.803 17.8333 336.833 18.8033 336.833 20V25.9999C336.833 27.1965 337.803 28.1666 339 28.1666H355.666C356.863 28.1666 357.833 27.1965 357.833 25.9999V20C357.833 18.8033 356.863 17.8333 355.666 17.8333Z" stroke="#1E1E1E"/>
<path opacity="0.4" d="M359.333 21V25C360.138 24.6612 360.661 23.8731 360.661 23C360.661 22.1269 360.138 21.3388 359.333 21Z" fill="#1E1E1E"/>
<path d="M355 19.3333H339.666C338.93 19.3333 338.333 19.9303 338.333 20.6666V25.3333C338.333 26.0697 338.93 26.6666 339.666 26.6666H355C355.736 26.6666 356.333 26.0697 356.333 25.3333V20.6666C356.333 19.9303 355.736 19.3333 355 19.3333Z" fill="#1E1E1E"/>
<path fill-rule="evenodd" clip-rule="evenodd" d="M323.667 19.6152C325.892 19.6153 328.031 20.4694 329.644 22.001C329.765 22.1192 329.959 22.1177 330.079 21.9976L331.239 20.8273C331.3 20.7664 331.334 20.6839 331.333 20.598C331.333 20.5122 331.298 20.4301 331.237 20.3699C327.005 16.3176 320.329 16.3176 316.097 20.3699C316.035 20.43 316.001 20.5121 316 20.598C315.999 20.6838 316.033 20.7663 316.094 20.8273L317.255 21.9976C317.374 22.1179 317.568 22.1194 317.69 22.001C319.302 20.4693 321.442 19.6152 323.667 19.6152ZM323.667 23.4227C324.889 23.4227 326.068 23.8766 326.974 24.6964C327.097 24.8127 327.29 24.8102 327.409 24.6907L328.569 23.5204C328.63 23.459 328.663 23.3757 328.663 23.2892C328.662 23.2027 328.626 23.1201 328.564 23.0599C325.805 20.4955 321.532 20.4955 318.773 23.0599C318.71 23.1201 318.675 23.2027 318.674 23.2893C318.673 23.3758 318.707 23.4591 318.768 23.5204L319.927 24.6907C320.047 24.8102 320.24 24.8127 320.362 24.6964C321.268 23.8772 322.446 23.4233 323.667 23.4227ZM325.989 25.9846C325.991 26.0714 325.957 26.155 325.895 26.2158L323.89 28.2378C323.831 28.2972 323.751 28.3307 323.667 28.3307C323.583 28.3307 323.503 28.2972 323.445 28.2378L321.439 26.2158C321.377 26.155 321.343 26.0713 321.345 25.9845C321.347 25.8977 321.384 25.8156 321.449 25.7574C322.729 24.6751 324.605 24.6751 325.886 25.7574C325.95 25.8156 325.988 25.8978 325.989 25.9846Z" fill="#1E1E1E"/>
<path fill-rule="evenodd" clip-rule="evenodd" d="M310 17.6667H309C308.448 17.6667 308 18.1144 308 18.6667V27.3333C308 27.8856 308.448 28.3333 309 28.3333H310C310.552 28.3333 311 27.8856 311 27.3333V18.6667C311 18.1144 310.552 17.6667 310 17.6667ZM304.333 20H305.333C305.886 20 306.333 20.4477 306.333 21V27.3333C306.333 27.8856 305.886 28.3333 305.333 28.3333H304.333C303.781 28.3333 303.333 27.8856 303.333 27.3333V21C303.333 20.4477 303.781 20 304.333 20ZM300.667 22.3333H299.667C299.114 22.3333 298.667 22.781 298.667 23.3333V27.3333C298.667 27.8856 299.114 28.3333 299.667 28.3333H300.667C301.219 28.3333 301.667 27.8856 301.667 27.3333V23.3333C301.667 22.781 301.219 22.3333 300.667 22.3333ZM296 24.3333H295C294.448 24.3333 294 24.781 294 25.3333V27.3333C294 27.8856 294.448 28.3333 295 28.3333H296C296.552 28.3333 297 27.8856 297 27.3333V25.3333C297 24.781 296.552 24.3333 296 24.3333Z" fill="#1E1E1E"/>
<path d="M75 0H294C291.894 0.602689 290.418 2.49525 290.345 4.68447L290.317 5.5618C290.317 19.0587 279.375 30 265.878 30H103.122C89.6249 30 78.6835 19.0587 78.6835 5.5618L78.6545 4.68447C78.5823 2.49525 77.1059 0.602689 75 0Z" fill="black"/>
<path d="M252.5 799H123.5C122.119 799 121 800.119 121 801.5C121 802.881 122.119 804 123.5 804H252.5C253.881 804 255 802.881 255 801.5C255 800.119 253.881 799 252.5 799Z" fill="black"/>
<path d="M118.394 159.8L112.362 178H108.774L104.276 164.532L99.7002 178H96.0862L90.0541 159.8H93.5641L98.0882 173.632L102.794 159.8H105.914L110.516 173.71L115.17 159.8H118.394ZM132.547 171.136C132.547 171.361 132.529 171.682 132.495 172.098H121.601C121.791 173.121 122.285 173.935 123.083 174.542C123.897 175.131 124.903 175.426 126.099 175.426C127.624 175.426 128.881 174.923 129.869 173.918L131.611 175.92C130.987 176.665 130.198 177.229 129.245 177.61C128.291 177.991 127.217 178.182 126.021 178.182C124.495 178.182 123.152 177.879 121.991 177.272C120.829 176.665 119.928 175.825 119.287 174.75C118.663 173.658 118.351 172.427 118.351 171.058C118.351 169.706 118.654 168.493 119.261 167.418C119.885 166.326 120.743 165.477 121.835 164.87C122.927 164.263 124.157 163.96 125.527 163.96C126.879 163.96 128.083 164.263 129.141 164.87C130.215 165.459 131.047 166.3 131.637 167.392C132.243 168.467 132.547 169.715 132.547 171.136ZM125.527 166.56C124.487 166.56 123.603 166.872 122.875 167.496C122.164 168.103 121.731 168.917 121.575 169.94H129.453C129.314 168.935 128.889 168.12 128.179 167.496C127.468 166.872 126.584 166.56 125.527 166.56ZM135.369 158.708H138.619V178H135.369V158.708ZM148.954 178.182C147.515 178.182 146.224 177.879 145.08 177.272C143.936 176.665 143.043 175.825 142.402 174.75C141.761 173.658 141.44 172.427 141.44 171.058C141.44 169.689 141.761 168.467 142.402 167.392C143.043 166.317 143.927 165.477 145.054 164.87C146.198 164.263 147.498 163.96 148.954 163.96C150.323 163.96 151.519 164.237 152.542 164.792C153.582 165.347 154.362 166.144 154.882 167.184L152.386 168.64C151.987 167.999 151.485 167.522 150.878 167.21C150.289 166.881 149.639 166.716 148.928 166.716C147.715 166.716 146.709 167.115 145.912 167.912C145.115 168.692 144.716 169.741 144.716 171.058C144.716 172.375 145.106 173.433 145.886 174.23C146.683 175.01 147.697 175.4 148.928 175.4C149.639 175.4 150.289 175.244 150.878 174.932C151.485 174.603 151.987 174.117 152.386 173.476L154.882 174.932C154.345 175.972 153.556 176.778 152.516 177.35C151.493 177.905 150.306 178.182 148.954 178.182ZM163.428 178.182C162.024 178.182 160.759 177.879 159.632 177.272C158.506 176.665 157.622 175.825 156.98 174.75C156.356 173.658 156.044 172.427 156.044 171.058C156.044 169.689 156.356 168.467 156.98 167.392C157.622 166.317 158.506 165.477 159.632 164.87C160.759 164.263 162.024 163.96 163.428 163.96C164.85 163.96 166.124 164.263 167.25 164.87C168.377 165.477 169.252 166.317 169.876 167.392C170.518 168.467 170.838 169.689 170.838 171.058C170.838 172.427 170.518 173.658 169.876 174.75C169.252 175.825 168.377 176.665 167.25 177.272C166.124 177.879 164.85 178.182 163.428 178.182ZM163.428 175.4C164.624 175.4 165.612 175.001 166.392 174.204C167.172 173.407 167.562 172.358 167.562 171.058C167.562 169.758 167.172 168.709 166.392 167.912C165.612 167.115 164.624 166.716 163.428 166.716C162.232 166.716 161.244 167.115 160.464 167.912C159.702 168.709 159.32 169.758 159.32 171.058C159.32 172.358 159.702 173.407 160.464 174.204C161.244 175.001 162.232 175.4 163.428 175.4ZM191.17 163.96C192.921 163.96 194.308 164.471 195.33 165.494C196.353 166.499 196.864 168.016 196.864 170.044V178H193.614V170.46C193.614 169.247 193.346 168.337 192.808 167.73C192.271 167.106 191.5 166.794 190.494 166.794C189.402 166.794 188.527 167.158 187.868 167.886C187.21 168.597 186.88 169.619 186.88 170.954V178H183.63V170.46C183.63 169.247 183.362 168.337 182.824 167.73C182.287 167.106 181.516 166.794 180.51 166.794C179.401 166.794 178.517 167.149 177.858 167.86C177.217 168.571 176.896 169.602 176.896 170.954V178H173.646V164.116H176.74V165.884C177.26 165.26 177.91 164.783 178.69 164.454C179.47 164.125 180.337 163.96 181.29 163.96C182.33 163.96 183.249 164.159 184.046 164.558C184.861 164.939 185.502 165.511 185.97 166.274C186.542 165.546 187.279 164.983 188.18 164.584C189.082 164.168 190.078 163.96 191.17 163.96ZM213.896 171.136C213.896 171.361 213.879 171.682 213.844 172.098H202.95C203.141 173.121 203.635 173.935 204.432 174.542C205.247 175.131 206.252 175.426 207.448 175.426C208.974 175.426 210.23 174.923 211.218 173.918L212.96 175.92C212.336 176.665 211.548 177.229 210.594 177.61C209.641 177.991 208.566 178.182 207.37 178.182C205.845 178.182 204.502 177.879 203.34 177.272C202.179 176.665 201.278 175.825 200.636 174.75C200.012 173.658 199.7 172.427 199.7 171.058C199.7 169.706 200.004 168.493 200.61 167.418C201.234 166.326 202.092 165.477 203.184 164.87C204.276 164.263 205.507 163.96 206.876 163.96C208.228 163.96 209.433 164.263 210.49 164.87C211.565 165.459 212.397 166.3 212.986 167.392C213.593 168.467 213.896 169.715 213.896 171.136ZM206.876 166.56C205.836 166.56 204.952 166.872 204.224 167.496C203.514 168.103 203.08 168.917 202.924 169.94H210.802C210.664 168.935 210.239 168.12 209.528 167.496C208.818 166.872 207.934 166.56 206.876 166.56ZM231.3 163.96C232.652 163.96 233.856 164.255 234.914 164.844C235.988 165.433 236.829 166.265 237.436 167.34C238.042 168.415 238.346 169.654 238.346 171.058C238.346 172.462 238.042 173.71 237.436 174.802C236.829 175.877 235.988 176.709 234.914 177.298C233.856 177.887 232.652 178.182 231.3 178.182C230.346 178.182 229.471 178.017 228.674 177.688C227.894 177.359 227.235 176.865 226.698 176.206V178H223.604V158.708H226.854V165.806C227.408 165.199 228.058 164.74 228.804 164.428C229.566 164.116 230.398 163.96 231.3 163.96ZM230.936 175.4C232.132 175.4 233.111 175.001 233.874 174.204C234.654 173.407 235.044 172.358 235.044 171.058C235.044 169.758 234.654 168.709 233.874 167.912C233.111 167.115 232.132 166.716 230.936 166.716C230.156 166.716 229.454 166.898 228.83 167.262C228.206 167.609 227.712 168.111 227.348 168.77C226.984 169.429 226.802 170.191 226.802 171.058C226.802 171.925 226.984 172.687 227.348 173.346C227.712 174.005 228.206 174.516 228.83 174.88C229.454 175.227 230.156 175.4 230.936 175.4ZM246.254 163.96C248.3 163.96 249.86 164.454 250.934 165.442C252.026 166.413 252.572 167.886 252.572 169.862V178H249.504V176.31C249.106 176.917 248.534 177.385 247.788 177.714C247.06 178.026 246.176 178.182 245.136 178.182C244.096 178.182 243.186 178.009 242.406 177.662C241.626 177.298 241.02 176.804 240.586 176.18C240.17 175.539 239.962 174.819 239.962 174.022C239.962 172.774 240.422 171.777 241.34 171.032C242.276 170.269 243.741 169.888 245.734 169.888H249.322V169.68C249.322 168.709 249.028 167.964 248.438 167.444C247.866 166.924 247.008 166.664 245.864 166.664C245.084 166.664 244.313 166.785 243.55 167.028C242.805 167.271 242.172 167.609 241.652 168.042L240.378 165.676C241.106 165.121 241.982 164.697 243.004 164.402C244.027 164.107 245.11 163.96 246.254 163.96ZM245.812 175.816C246.627 175.816 247.346 175.634 247.97 175.27C248.612 174.889 249.062 174.351 249.322 173.658V172.046H245.968C244.096 172.046 243.16 172.661 243.16 173.892C243.16 174.481 243.394 174.949 243.862 175.296C244.33 175.643 244.98 175.816 245.812 175.816ZM262.94 178.182C261.501 178.182 260.21 177.879 259.066 177.272C257.922 176.665 257.029 175.825 256.388 174.75C255.747 173.658 255.426 172.427 255.426 171.058C255.426 169.689 255.747 168.467 256.388 167.392C257.029 166.317 257.913 165.477 259.04 164.87C260.184 164.263 261.484 163.96 262.94 163.96C264.309 163.96 265.505 164.237 266.528 164.792C267.568 165.347 268.348 166.144 268.868 167.184L266.372 168.64C265.973 167.999 265.471 167.522 264.864 167.21C264.275 166.881 263.625 166.716 262.914 166.716C261.701 166.716 260.695 167.115 259.898 167.912C259.101 168.692 258.702 169.741 258.702 171.058C258.702 172.375 259.092 173.433 259.872 174.23C260.669 175.01 261.683 175.4 262.914 175.4C263.625 175.4 264.275 175.244 264.864 174.932C265.471 174.603 265.973 174.117 266.372 173.476L268.868 174.932C268.331 175.972 267.542 176.778 266.502 177.35C265.479 177.905 264.292 178.182 262.94 178.182ZM276.919 172.046L274.501 174.334V178H271.251V158.708H274.501V170.356L281.235 164.116H285.135L279.337 169.94L285.681 178H281.729L276.919 172.046Z" fill="#161826"/>
<path d="M375 521H0V812H375V521Z" fill="#CCCED3"/>
<path d="M375 521H0V812H375V521Z" fill="#D1D5DB"/>
<path d="M252.5 799H123.5C122.119 799 121 800.119 121 801.5C121 802.881 122.119 804 123.5 804H252.5C253.881 804 255 802.881 255 801.5C255 800.119 253.881 799 252.5 799Z" fill="black"/>
<path fill-rule="evenodd" clip-rule="evenodd" d="M330.833 772.332C331.294 772.332 331.667 772.705 331.667 773.165C331.667 773.193 331.665 773.22 331.663 773.247V775.542H331.658V775.549C331.658 775.564 331.659 775.58 331.661 775.596C331.662 775.61 331.663 775.624 331.663 775.639V775.952H331.678C331.926 778.916 334.351 781.226 337.324 781.329H337.66C340.634 781.228 343.06 778.917 343.307 775.952H343.327V773.175H343.333V773.165C343.333 772.705 343.706 772.332 344.167 772.332C344.627 772.332 345 772.705 345 773.165C345 773.189 344.999 773.213 344.997 773.236V775.282H344.987C344.989 779.111 342.128 782.336 338.327 782.79V785.323H341.467V785.334C341.478 785.333 341.489 785.333 341.5 785.333C341.96 785.333 342.333 785.706 342.333 786.167C342.333 786.627 341.96 787 341.5 787C341.489 787 341.478 787 341.467 786.999L333.53 787C333.52 787.001 333.51 787 333.5 787C333.04 787 332.667 786.627 332.667 786.167C332.667 785.706 333.04 785.333 333.5 785.333C333.51 785.333 333.52 785.333 333.53 785.334V785.323H336.677V782.79C332.867 782.347 329.995 779.118 330 775.282C330 775.262 330.002 775.243 330.003 775.225C330.005 775.209 330.006 775.194 330.006 775.179V773.268C330.002 773.235 330 773.2 330 773.165C330 772.705 330.373 772.332 330.833 772.332ZM341.993 773.879C341.993 774.382 341.993 774.912 341.967 775.415C341.946 775.869 341.877 776.32 341.76 776.759C341.499 777.681 340.943 778.491 340.177 779.066C338.605 780.306 336.388 780.306 334.817 779.066C334.048 778.493 333.492 777.682 333.233 776.759C333.115 776.32 333.046 775.869 333.026 775.415C332.997 774.912 333 774.382 333 773.879V769.665C333 769.165 333.003 766.955 333 766.581C333.013 766.125 333.092 765.672 333.233 765.238C333.767 763.324 335.51 762 337.497 762C339.484 762 341.227 763.324 341.761 765.238C341.886 765.676 341.964 766.126 341.994 766.581C342.024 767.085 341.994 769.165 341.994 769.665L341.993 773.879ZM340.327 774.665C340.327 774.985 340.32 775.092 340.3 775.412C340.288 775.703 340.245 775.991 340.17 776.272C340.01 776.862 339.663 777.384 339.18 777.759C338.191 778.528 336.806 778.528 335.817 777.759C335.332 777.385 334.983 776.863 334.823 776.272C334.75 775.991 334.706 775.703 334.693 775.412C334.677 775.092 334.673 774.985 334.673 774.665C334.673 770.232 334.653 766.945 334.68 766.591C334.699 766.3 334.747 766.012 334.823 765.731C334.983 765.14 335.332 764.618 335.817 764.244C336.806 763.475 338.191 763.475 339.18 764.244C339.663 764.619 340.01 765.141 340.17 765.731C340.255 766.011 340.308 766.3 340.33 766.591C340.353 766.971 340.327 770.218 340.327 774.665Z" fill="#50555C"/>
<path fill-rule="evenodd" clip-rule="evenodd" d="M38.5 761C45.9558 761 52 767.044 52 774.5C52 781.956 45.9558 788 38.5 788C31.0442 788 25 781.956 25 774.5C25 767.044 31.0442 761 38.5 761ZM38.5 762.573C45.0871 762.573 50.4264 767.914 50.4259 774.501C50.4254 781.088 45.0853 786.427 38.4982 786.427C31.9111 786.427 26.5714 781.087 26.5714 774.5C26.5715 771.336 27.8283 768.303 30.0654 766.066C32.3025 763.829 35.3365 762.572 38.5 762.573ZM34.2293 768.644C33.812 768.639 33.4102 768.802 33.1137 769.096C32.8173 769.389 32.651 769.79 32.6521 770.207C32.6521 771.078 33.3582 771.784 34.2293 771.784C35.1003 771.784 35.8064 771.078 35.8064 770.207C35.8075 769.79 35.6413 769.389 35.3448 769.096C35.0484 768.802 34.6465 768.639 34.2293 768.644ZM47.4967 776.825C46.7779 780.71 43.0286 783.953 38.4983 783.953C34.0042 783.953 30.2768 780.757 29.5157 776.916C29.3615 775.958 30.1465 775.732 30.886 775.911C33.3597 776.626 35.9251 776.974 38.5 776.943C41.0691 776.973 43.6286 776.626 46.0971 775.914C46.816 775.732 47.5858 775.938 47.4967 776.825ZM45.0563 777.365C44.9861 777.392 44.9149 777.413 44.843 777.436C44.8355 777.44 45.0731 777.362 45.0661 777.365C42.9315 777.953 40.725 778.238 38.5111 778.212C35.8692 778.212 33.5063 777.919 31.8803 777.335C30.7014 776.984 30.9275 778.371 31.7561 778.796C33.8758 779.761 36.182 780.248 38.5108 780.221C41.281 780.221 43.7495 779.576 45.3799 778.742C46.1515 778.246 46.304 776.916 45.0563 777.365ZM42.7795 768.644C42.3622 768.639 41.9603 768.802 41.6638 769.096C41.3674 769.389 41.201 769.79 41.202 770.207C41.1937 770.776 41.4925 771.305 41.9839 771.592C42.4754 771.879 43.0833 771.879 43.5747 771.592C44.0662 771.305 44.365 770.776 44.3566 770.207C44.3577 769.79 44.1914 769.389 43.8949 769.096C43.5985 768.802 43.1967 768.639 42.7795 768.644Z" fill="#50555C"/>
<g filter="url(#filter0_d_1_442)">
<path fill-rule="evenodd" clip-rule="evenodd" d="M284 698.36C284 695.784 284 694.496 284.501 693.512C284.942 692.646 285.646 691.942 286.512 691.501C287.496 691 288.784 691 291.36 691H364.64C367.216 691 368.504 691 369.488 691.501C370.354 691.942 371.058 692.646 371.499 693.512C372 694.496 372 695.784 372 698.36V725.64C372 728.216 372 729.504 371.499 730.488C371.058 731.354 370.354 732.058 369.488 732.499C368.504 733 367.216 733 364.64 733H291.36C288.784 733 287.496 733 286.512 732.499C285.646 732.058 284.942 731.354 284.501 730.488C284 729.504 284 728.216 284 725.64V698.36Z" fill="#ADB3BC"/>
</g>
<path d="M323.566 718.266C326.449 718.266 328.355 716.422 328.355 713.641V712.266H323.785V713.5H326.949V713.773C326.949 715.68 325.59 716.969 323.574 716.969C321.308 716.969 319.894 715.203 319.894 712.367V712.352C319.894 709.555 321.332 707.758 323.566 707.758C325.246 707.758 326.379 708.555 326.84 710.008L326.863 710.086H328.285L328.269 710.008C327.824 707.867 326.066 706.461 323.566 706.461C320.48 706.461 318.457 708.797 318.457 712.352V712.367C318.457 715.969 320.449 718.266 323.566 718.266ZM333.817 718.148C336.215 718.148 337.699 716.492 337.699 713.797V713.781C337.699 711.078 336.215 709.43 333.817 709.43C331.418 709.43 329.934 711.078 329.934 713.781V713.797C329.934 716.492 331.418 718.148 333.817 718.148ZM333.817 716.945C332.223 716.945 331.324 715.781 331.324 713.797V713.781C331.324 711.789 332.223 710.633 333.817 710.633C335.41 710.633 336.309 711.789 336.309 713.781V713.797C336.309 715.781 335.41 716.945 333.817 716.945Z" fill="black"/>
<g filter="url(#filter1_d_1_442)">
<path fill-rule="evenodd" clip-rule="evenodd" d="M96 698.36C96 695.784 96 694.496 96.5014 693.512C96.9424 692.646 97.6461 691.942 98.5116 691.501C99.4956 691 100.784 691 103.36 691H270.64C273.216 691 274.504 691 275.488 691.501C276.354 691.942 277.058 692.646 277.499 693.512C278 694.496 278 695.784 278 698.36V725.64C278 728.216 278 729.504 277.499 730.488C277.058 731.354 276.354 732.058 275.488 732.499C274.504 733 273.216 733 270.64 733H103.36C100.784 733 99.4956 733 98.5116 732.499C97.6461 732.058 96.9424 731.354 96.5014 730.488C96 729.504 96 728.216 96 725.64V698.36Z" fill="#FCFCFE"/>
</g>
<path d="M169.265 718.148C171.179 718.148 172.64 717.109 172.64 715.609V715.594C172.64 714.391 171.874 713.703 170.288 713.32L168.992 713.008C167.999 712.766 167.577 712.406 167.577 711.836V711.82C167.577 711.078 168.312 710.562 169.312 710.562C170.327 710.562 170.984 711.023 171.163 711.688H172.499C172.312 710.312 171.085 709.43 169.32 709.43C167.531 709.43 166.187 710.484 166.187 711.883V711.891C166.187 713.102 166.898 713.789 168.476 714.164L169.781 714.477C170.82 714.727 171.249 715.125 171.249 715.695V715.711C171.249 716.477 170.445 717.016 169.312 717.016C168.234 717.016 167.562 716.555 167.335 715.852H165.945C166.101 717.242 167.39 718.148 169.265 718.148ZM174.429 720.812H175.789V716.672H175.914C176.375 717.57 177.382 718.148 178.539 718.148C180.679 718.148 182.07 716.438 182.07 713.797V713.781C182.07 711.156 180.672 709.43 178.539 709.43C177.367 709.43 176.429 709.984 175.914 710.922H175.789V709.578H174.429V720.812ZM178.226 716.945C176.695 716.945 175.757 715.742 175.757 713.797V713.781C175.757 711.836 176.695 710.633 178.226 710.633C179.765 710.633 180.679 711.82 180.679 713.781V713.797C180.679 715.758 179.765 716.945 178.226 716.945ZM186.188 718.148C187.32 718.148 188.203 717.656 188.734 716.758H188.859V718H190.219V712.234C190.219 710.484 189.07 709.43 187.016 709.43C185.219 709.43 183.938 710.32 183.719 711.641L183.711 711.688H185.07L185.078 711.664C185.297 711.008 185.961 710.633 186.969 710.633C188.227 710.633 188.859 711.195 188.859 712.234V713L186.445 713.148C184.484 713.266 183.375 714.133 183.375 715.633V715.648C183.375 717.18 184.586 718.148 186.188 718.148ZM184.766 715.617V715.602C184.766 714.766 185.328 714.312 186.609 714.234L188.859 714.094V714.859C188.859 716.062 187.852 716.969 186.469 716.969C185.492 716.969 184.766 716.469 184.766 715.617ZM195.828 718.148C197.852 718.148 198.985 717.062 199.328 715.539L199.344 715.453L198 715.461L197.985 715.508C197.672 716.445 196.953 716.945 195.821 716.945C194.321 716.945 193.352 715.703 193.352 713.766V713.75C193.352 711.852 194.305 710.633 195.821 710.633C197.032 710.633 197.782 711.305 197.993 712.133L198 712.156H199.352L199.344 712.109C199.094 710.609 197.868 709.43 195.821 709.43C193.461 709.43 191.961 711.133 191.961 713.75V713.766C191.961 716.438 193.469 718.148 195.828 718.148ZM204.454 718.148C206.438 718.148 207.641 717.023 207.93 715.883L207.946 715.82H206.587L206.555 715.891C206.329 716.398 205.626 716.938 204.485 716.938C202.985 716.938 202.024 715.922 201.985 714.18H208.048V713.648C208.048 711.133 206.657 709.43 204.368 709.43C202.079 709.43 200.594 711.211 200.594 713.812V713.82C200.594 716.461 202.048 718.148 204.454 718.148ZM204.36 710.641C205.602 710.641 206.524 711.43 206.665 713.094H202.008C202.157 711.492 203.11 710.641 204.36 710.641Z" fill="black"/>
<g filter="url(#filter2_d_1_442)">
<path fill-rule="evenodd" clip-rule="evenodd" d="M3 698.36C3 695.784 3 694.496 3.50137 693.512C3.94239 692.646 4.6461 691.942 5.51164 691.501C6.49564 691 7.78376 691 10.36 691H82.64C85.2162 691 86.5044 691 87.4884 691.501C88.3539 691.942 89.0576 692.646 89.4986 693.512C90 694.496 90 695.784 90 698.36V725.64C90 728.216 90 729.504 89.4986 730.488C89.0576 731.354 88.3539 732.058 87.4884 732.499C86.5044 733 85.2162 733 82.64 733H10.36C7.78376 733 6.49564 733 5.51164 732.499C4.6461 732.058 3.94239 731.354 3.50137 730.488C3 729.504 3 728.216 3 725.64V698.36Z" fill="#ADB3BC"/>
</g>
<path d="M37.2809 718H38.6872V706.727H37.2887L34.2887 708.883V710.367L37.1559 708.289H37.2809V718ZM41.625 718H48.9219V716.734H43.5781V716.609L46.1406 713.961C48.1797 711.859 48.7344 710.922 48.7344 709.633V709.617C48.7344 707.797 47.2266 706.461 45.2578 706.461C43.1016 706.461 41.5547 707.898 41.5469 709.898L41.5625 709.906L42.9062 709.914L42.9141 709.898C42.9141 708.57 43.8125 707.688 45.1641 707.688C46.4922 707.688 47.2969 708.578 47.2969 709.766V709.781C47.2969 710.766 46.875 711.352 45.4375 712.906L41.625 717.031V718ZM54.7972 718.188C57.055 718.188 58.7113 716.797 58.7113 714.914V714.898C58.7113 713.297 57.5941 712.273 55.9534 712.133V712.102C57.3597 711.805 58.3441 710.852 58.3441 709.461V709.445C58.3441 707.734 56.93 706.539 54.7816 706.539C52.6722 706.539 51.2191 707.766 51.0394 709.602L51.0316 709.68H52.3831L52.3909 709.602C52.5081 708.461 53.4534 707.758 54.7816 707.758C56.1566 707.758 56.93 708.438 56.93 709.617V709.633C56.93 710.758 55.9925 711.586 54.6488 711.586H53.2972V712.773H54.7113C56.2894 712.773 57.2816 713.547 57.2816 714.93V714.945C57.2816 716.141 56.2738 716.969 54.7972 716.969C53.2972 716.969 52.2738 716.203 52.1644 715.094L52.1566 715.016H50.805L50.8128 715.109C50.9613 716.891 52.4691 718.188 54.7972 718.188Z" fill="black"/>
<g filter="url(#filter3_d_1_442)">
<path fill-rule="evenodd" clip-rule="evenodd" d="M330 644.36C330 641.784 330 640.496 330.501 639.512C330.942 638.646 331.646 637.942 332.512 637.501C333.496 637 334.784 637 337.36 637H364.64C367.216 637 368.504 637 369.488 637.501C370.354 637.942 371.058 638.646 371.499 639.512C372 640.496 372 641.784 372 644.36V671.64C372 674.216 372 675.504 371.499 676.488C371.058 677.354 370.354 678.058 369.488 678.499C368.504 679 367.216 679 364.64 679H337.36C334.784 679 333.496 679 332.512 678.499C331.646 678.058 330.942 677.354 330.501 676.488C330 675.504 330 674.216 330 671.64V644.36Z" fill="#ADB3BC"/>
</g>
<path fill-rule="evenodd" clip-rule="evenodd" d="M343.213 653.778C343.198 653.792 343.169 653.82 343.136 653.852C343.113 653.875 343.094 653.894 343.055 653.932L340.912 656.076C340.856 656.134 340.817 656.174 340.727 656.264C340.676 656.315 340.639 656.354 340.559 656.439C340.411 656.582 340.254 656.754 340.107 656.935C339.969 657.081 339.859 657.252 339.781 657.438C339.623 657.922 339.623 658.392 339.764 658.829L339.783 658.88C339.861 659.065 339.971 659.233 340.107 659.379C340.254 659.559 340.411 659.73 340.576 659.893C340.639 659.96 340.676 659.999 340.727 660.05L340.912 660.235L342.866 662.193C342.958 662.284 343.003 662.328 343.054 662.378C343.11 662.436 343.168 662.494 343.226 662.549C343.237 662.559 345.727 665.047 345.727 665.047C345.804 665.124 345.866 665.185 346.006 665.319C346.021 665.334 346.043 665.357 346.05 665.364C346.086 665.402 346.107 665.424 346.121 665.438C346.411 665.728 346.745 665.973 347.11 666.162C347.485 666.348 347.874 666.476 348.276 666.547C348.655 666.609 349.031 666.642 349.408 666.648C349.473 666.649 349.527 666.65 349.647 666.651C349.763 666.652 349.814 666.653 349.876 666.654H357.297C357.374 666.653 357.426 666.652 357.543 666.651C357.664 666.65 357.718 666.649 357.788 666.648C358.166 666.641 358.545 666.607 358.92 666.545C359.33 666.476 359.725 666.345 360.094 666.158C360.465 665.969 360.804 665.722 361.098 665.427C361.391 665.133 361.636 664.796 361.826 664.427C362.013 664.053 362.141 663.66 362.21 663.254C362.273 662.875 362.306 662.495 362.311 662.113C362.314 662.035 362.315 661.96 362.318 661.794C362.319 661.715 362.319 661.68 362.32 661.638V654.648C362.319 654.594 362.319 654.559 362.318 654.482L362.316 654.401C362.315 654.3 362.313 654.224 362.31 654.148C362.306 653.789 362.274 653.413 362.215 653.042C362.142 652.63 362.014 652.24 361.832 651.875C361.641 651.502 361.398 651.168 361.106 650.877C360.816 650.584 360.479 650.338 360.11 650.15C359.743 649.966 359.355 649.838 358.955 649.767C358.572 649.706 358.195 649.674 357.818 649.669C357.693 649.664 357.583 649.663 357.338 649.663C357.258 649.662 357.164 649.661 357.059 649.66C356.98 649.66 356.917 649.66 356.775 649.66H350.452C350.169 649.66 350.04 649.661 349.879 649.663C349.645 649.663 349.534 649.664 349.392 649.67C349.033 649.674 348.657 649.706 348.285 649.765C347.874 649.838 347.485 649.966 347.119 650.148C346.745 650.341 346.411 650.586 346.12 650.877C346.107 650.89 346.086 650.912 346.051 650.949C346.043 650.957 346.006 650.995 346.006 650.995C345.866 651.129 345.804 651.19 345.727 651.267L345.406 651.588L343.271 653.726C343.253 653.741 343.233 653.758 343.213 653.778ZM356.775 650.919C356.915 650.919 356.977 650.919 357.054 650.919C357.154 650.92 357.243 650.92 357.328 650.922C357.566 650.922 357.665 650.923 357.785 650.928C358.119 650.932 358.434 650.959 358.747 651.009C359.016 651.056 359.288 651.146 359.542 651.274C359.789 651.399 360.017 651.566 360.215 651.765C360.415 651.965 360.581 652.193 360.709 652.443C360.833 652.693 360.923 652.967 360.973 653.25C361.021 653.551 361.048 653.865 361.052 654.181C361.055 654.261 361.056 654.328 361.058 654.42L361.059 654.498C361.06 654.579 361.06 654.615 361.061 654.661V661.625C361.06 661.659 361.06 661.696 361.059 661.777C361.057 661.932 361.055 662 361.052 662.082C361.048 662.417 361.021 662.733 360.969 663.045C360.921 663.326 360.831 663.601 360.703 663.858C360.576 664.105 360.407 664.337 360.206 664.539C360.006 664.74 359.776 664.907 359.524 665.036C359.268 665.165 358.995 665.256 358.712 665.303C358.401 665.355 358.083 665.384 357.764 665.389C357.699 665.39 357.647 665.391 357.53 665.392C357.409 665.393 357.355 665.394 357.285 665.395H349.889C349.833 665.394 349.779 665.393 349.659 665.392C349.543 665.391 349.492 665.39 349.43 665.389C349.111 665.385 348.797 665.357 348.486 665.306C348.211 665.258 347.937 665.167 347.68 665.04C347.439 664.915 347.21 664.747 347.011 664.548L346.962 664.496C346.913 664.445 346.892 664.423 346.868 664.402C346.742 664.281 346.685 664.225 346.617 664.157L344.122 661.662C344.099 661.641 344.085 661.628 344.076 661.62C344.031 661.577 343.994 661.539 343.959 661.502C343.887 661.432 343.847 661.393 343.757 661.303L341.803 659.346L341.617 659.16C341.578 659.121 341.547 659.089 341.476 659.013C341.321 658.86 341.191 658.717 341.069 658.567L341.031 658.524C340.999 658.491 340.973 658.454 340.953 658.413C340.905 658.245 340.905 658.067 340.953 657.899C340.972 657.86 340.998 657.824 341.028 657.793L341.071 657.745C341.191 657.596 341.319 657.454 341.456 657.321C341.547 657.226 341.578 657.193 341.617 657.155C341.715 657.056 341.759 657.012 341.814 656.954L343.757 655.011L343.946 654.823C343.983 654.785 343.999 654.769 344.02 654.749L344.061 654.711C344.092 654.684 344.108 654.669 344.125 654.653L346.297 652.478L346.617 652.157C346.685 652.089 346.742 652.034 346.868 651.912C346.892 651.891 346.913 651.869 346.96 651.82L347.011 651.767C347.21 651.567 347.439 651.4 347.689 651.27C347.937 651.147 348.211 651.057 348.494 651.007C348.795 650.959 349.109 650.932 349.424 650.928C349.562 650.923 349.661 650.922 349.889 650.922C350.052 650.919 350.176 650.919 350.452 650.919H356.775ZM350.813 661.488C350.762 661.538 350.701 661.579 350.633 661.607C350.421 661.695 350.177 661.646 350.015 661.484C349.795 661.263 349.795 660.905 350.015 660.684C350.047 660.652 350.082 660.624 350.12 660.601L352.564 658.154L350.015 655.608L350.023 655.6C349.973 655.549 349.932 655.488 349.904 655.42C349.816 655.208 349.865 654.964 350.028 654.802C350.249 654.582 350.606 654.582 350.827 654.802C350.859 654.834 350.887 654.87 350.91 654.907L353.362 657.355L355.837 654.878C355.856 654.851 355.877 654.826 355.9 654.802C356.061 654.64 356.304 654.592 356.515 654.679C356.726 654.766 356.864 654.972 356.864 655.2C356.864 655.353 356.803 655.495 356.7 655.599L356.706 655.605L354.161 658.153L356.644 660.633C356.667 660.649 356.688 660.667 356.709 660.687C356.871 660.849 356.919 661.091 356.832 661.303C356.745 661.514 356.539 661.652 356.311 661.652C356.158 661.652 356.016 661.59 355.912 661.487L355.906 661.493L353.362 658.952L350.821 661.496L350.813 661.488Z" fill="black"/>
<g filter="url(#filter4_d_1_442)">
<path d="M40.4 637H7.6C5.05949 637 3 639.059 3 641.6V674.4C3 676.941 5.05949 679 7.6 679H40.4C42.9405 679 45 676.941 45 674.4V641.6C45 639.059 42.9405 637 40.4 637Z" fill="#FCFCFE"/>
</g>
<path d="M32.8 659.664H28.603V663.633C28.603 663.713 28.603 663.787 28.603 663.863C28.603 663.93 28.603 663.993 28.6003 664.06C28.5984 664.203 28.5861 664.345 28.5633 664.487C28.5385 664.627 28.4936 664.762 28.43 664.89C28.3649 665.017 28.2798 665.133 28.1781 665.233C28.0758 665.333 27.9591 665.417 27.8318 665.483C27.7029 665.546 27.566 665.591 27.4249 665.616C27.2834 665.638 27.1405 665.651 26.9973 665.653C26.9307 665.653 26.866 665.656 26.8007 665.656H21.4016C21.3349 665.656 21.2706 665.653 21.205 665.653C21.0618 665.651 20.9189 665.638 20.7774 665.616C20.6364 665.591 20.4996 665.546 20.3708 665.483C20.2435 665.417 20.1268 665.333 20.0246 665.233C19.9227 665.133 19.8377 665.017 19.7726 664.89C19.709 664.762 19.6641 664.627 19.6393 664.487C19.6164 664.345 19.6039 664.203 19.602 664.06C19.602 663.993 19.5993 663.93 19.5993 663.863C19.5993 663.787 19.5993 663.713 19.5993 663.633V659.664H15.336C14.9047 659.664 14.3515 658.735 14.8694 658.218C15.3096 657.781 22.2287 650.883 23.6767 649.447C23.7831 649.316 23.9334 649.228 24.0996 649.2H24.111C24.2548 649.208 24.3883 649.277 24.4776 649.39C25.9256 650.826 32.8683 657.781 33.3089 658.218C33.8271 658.735 33.3932 659.664 32.8 659.664Z" fill="black"/>
<g filter="url(#filter5_d_1_442)">
<path d="M312.4 637H289.6C287.059 637 285 639.059 285 641.6V674.4C285 676.941 287.059 679 289.6 679H312.4C314.941 679 317 676.941 317 674.4V641.6C317 639.059 314.941 637 312.4 637Z" fill="#FCFCFE"/>
</g>
<path d="M293.189 666H295.034V653.893H295.155L300.165 666H301.835L306.845 653.893H306.966V666H308.811V650.147H306.515L301.088 663.374H300.912L295.485 650.147H293.189V666Z" fill="black"/>
<g filter="url(#filter6_d_1_442)">
<path d="M274.4 637H251.6C249.059 637 247 639.059 247 641.6V674.4C247 676.941 249.059 679 251.6 679H274.4C276.941 679 279 676.941 279 674.4V641.6C279 639.059 276.941 637 274.4 637Z" fill="#FCFCFE"/>
</g>
<path d="M257.172 666H259.127V653.706H259.303L267.906 666H269.828V650.147H267.873V662.484H267.697L259.094 650.147H257.172V666Z" fill="black"/>
<g filter="url(#filter7_d_1_442)">
<path d="M236.4 637H213.6C211.059 637 209 639.059 209 641.6V674.4C209 676.941 211.059 679 213.6 679H236.4C238.941 679 241 676.941 241 674.4V641.6C241 639.059 238.941 637 236.4 637Z" fill="#FCFCFE"/>
</g>
<path d="M220.128 666H226.313C229.686 666 231.685 664.341 231.685 661.562V661.54C231.685 659.452 230.312 657.969 228.148 657.694V657.519C229.675 657.244 230.883 655.75 230.883 654.113V654.091C230.883 651.674 229.104 650.147 226.192 650.147H220.128V666ZM225.775 651.894C227.741 651.894 228.884 652.827 228.884 654.431V654.453C228.884 656.123 227.664 656.98 225.269 656.98H222.105V651.894H225.775ZM225.83 658.683C228.356 658.683 229.653 659.617 229.653 661.441V661.463C229.653 663.286 228.4 664.253 226.016 664.253H222.105V658.683H225.83Z" fill="black"/>
<g filter="url(#filter8_d_1_442)">
<path d="M199.4 637H176.6C174.059 637 172 639.059 172 641.6V674.4C172 676.941 174.059 679 176.6 679H199.4C201.941 679 204 676.941 204 674.4V641.6C204 639.059 201.941 637 199.4 637Z" fill="#FCFCFE"/>
</g>
<path d="M187.022 666H188.978L194.823 650.147H192.746L188.088 663.44H187.912L183.254 650.147H181.177L187.022 666Z" fill="black"/>
<g filter="url(#filter9_d_1_442)">
<path d="M161.4 637H138.6C136.059 637 134 639.059 134 641.6V674.4C134 676.941 136.059 679 138.6 679H161.4C163.941 679 166 676.941 166 674.4V641.6C166 639.059 163.941 637 161.4 637Z" fill="#FCFCFE"/>
</g>
<path d="M150.852 666.374C154.224 666.374 156.729 664.495 157.257 661.594V661.573H155.257L155.235 661.594C154.741 663.418 153.06 664.55 150.852 664.55C147.797 664.55 145.886 662.056 145.886 658.09V658.068C145.886 654.102 147.797 651.597 150.841 651.597C153.027 651.597 154.719 652.882 155.246 654.915L155.257 654.937H157.246L157.257 654.915C156.784 651.872 154.18 649.773 150.841 649.773C146.534 649.773 143.853 652.959 143.853 658.068V658.09C143.853 663.188 146.545 666.374 150.852 666.374Z" fill="black"/>
<g filter="url(#filter10_d_1_442)">
<path d="M124.4 637H101.6C99.0595 637 97 639.059 97 641.6V674.4C97 676.941 99.0595 679 101.6 679H124.4C126.941 679 129 676.941 129 674.4V641.6C129 639.059 126.941 637 124.4 637Z" fill="#FCFCFE"/>
</g>
<path d="M106.342 666H108.583L112.857 659.672H112.923L117.142 666H119.515L114.154 658.134V658.09L119.636 650.147H117.384L113.099 656.53H113.033L108.792 650.147H106.408L111.748 657.991V658.035L106.342 666Z" fill="black"/>
<g filter="url(#filter11_d_1_442)">
<path d="M86.4 637H63.6C61.0595 637 59 639.059 59 641.6V674.4C59 676.941 61.0595 679 63.6 679H86.4C88.9405 679 91 676.941 91 674.4V641.6C91 639.059 88.9405 637 86.4 637Z" fill="#FCFCFE"/>
</g>
<path d="M69.6333 666H81.3557V664.22H72.2371V664.044L81.1689 651.553V650.147H69.9409V651.927H78.6091V652.102L69.6333 664.594V666Z" fill="black"/>
<g filter="url(#filter12_d_1_442)">
<path d="M349.4 583H326.6C324.059 583 322 585.059 322 587.6V620.4C322 622.941 324.059 625 326.6 625H349.4C351.941 625 354 622.941 354 620.4V587.6C354 585.059 351.941 583 349.4 583Z" fill="#FCFCFE"/>
</g>
<path d="M334.127 612H343.751V610.22H336.105V596.147H334.127V612Z" fill="black"/>
<g filter="url(#filter13_d_1_442)">
<path d="M311.4 583H288.6C286.059 583 284 585.059 284 587.6V620.4C284 622.941 286.059 625 288.6 625H311.4C313.941 625 316 622.941 316 620.4V587.6C316 585.059 313.941 583 311.4 583Z" fill="#FCFCFE"/>
</g>
<path d="M295.106 612H297.083V606.463L298.984 604.365L304.708 612H307.268L300.346 602.991L306.685 596.147H304.202L297.259 603.848H297.083V596.147H295.106V612Z" fill="black"/>
<g filter="url(#filter14_d_1_442)">
<path d="M274.4 583H251.6C249.059 583 247 585.059 247 587.6V620.4C247 622.941 249.059 625 251.6 625H274.4C276.941 625 279 622.941 279 620.4V587.6C279 585.059 276.941 583 274.4 583Z" fill="#FCFCFE"/>
</g>
<path d="M262.863 612.374C265.796 612.374 267.532 610.594 267.532 607.594V596.147H265.554V607.573C265.554 609.506 264.61 610.55 262.852 610.55C261.281 610.55 260.501 609.55 260.38 608.353L260.369 608.243H258.391L258.402 608.396C258.567 610.671 260.116 612.374 262.863 612.374Z" fill="black"/>
<g filter="url(#filter15_d_1_442)">
<path d="M236.4 583H213.6C211.059 583 209 585.059 209 587.6V620.4C209 622.941 211.059 625 213.6 625H236.4C238.941 625 241 622.941 241 620.4V587.6C241 585.059 238.941 583 236.4 583Z" fill="#FCFCFE"/>
</g>
<path d="M219.172 612H221.149V604.782H229.851V612H231.828V596.147H229.851V603.002H221.149V596.147H219.172V612Z" fill="black"/>
<g filter="url(#filter16_d_1_442)">
<path d="M199.4 583H176.6C174.059 583 172 585.059 172 587.6V620.4C172 622.941 174.059 625 176.6 625H199.4C201.941 625 204 622.941 204 620.4V587.6C204 585.059 201.941 583 199.4 583Z" fill="#FCFCFE"/>
</g>
<path d="M188.687 612.374C192.741 612.374 195.421 609.781 195.421 605.87V603.936H188.994V605.672H193.444V606.056C193.444 608.737 191.532 610.55 188.698 610.55C185.512 610.55 183.523 608.067 183.523 604.079V604.057C183.523 600.124 185.545 597.597 188.687 597.597C191.049 597.597 192.642 598.718 193.29 600.761L193.323 600.871H195.323L195.301 600.761C194.674 597.751 192.202 595.773 188.687 595.773C184.347 595.773 181.502 599.058 181.502 604.057V604.079C181.502 609.144 184.303 612.374 188.687 612.374Z" fill="black"/>
<g filter="url(#filter17_d_1_442)">
<path d="M161.4 583H138.6C136.059 583 134 585.059 134 587.6V620.4C134 622.941 136.059 625 138.6 625H161.4C163.941 625 166 622.941 166 620.4V587.6C166 585.059 163.941 583 161.4 583Z" fill="#FCFCFE"/>
</g>
<path d="M146.083 612H148.061V605.134H155.081V603.376H148.061V597.927H155.708V596.147H146.083V612Z" fill="black"/>
<g filter="url(#filter18_d_1_442)">
<path d="M124.4 583H101.6C99.0595 583 97 585.059 97 587.6V620.4C97 622.941 99.0595 625 101.6 625H124.4C126.941 625 129 622.941 129 620.4V587.6C129 585.059 126.941 583 124.4 583Z" fill="#FCFCFE"/>
</g>
<path d="M107.348 612H112.786C117.499 612 120.268 609.067 120.268 604.079V604.057C120.268 599.08 117.488 596.147 112.786 596.147H107.348V612ZM109.325 610.22V597.927H112.654C116.17 597.927 118.246 600.212 118.246 604.079V604.101C118.246 607.957 116.192 610.22 112.654 610.22H109.325Z" fill="black"/>
<g filter="url(#filter19_d_1_442)">
<path d="M86.4 583H63.6C61.0595 583 59 585.059 59 587.6V620.4C59 622.941 61.0595 625 63.6 625H86.4C88.9405 625 91 622.941 91 620.4V587.6C91 585.059 88.9405 583 86.4 583Z" fill="#FCFCFE"/>
</g>
<path d="M75.5439 612.374C79.0815 612.374 81.3997 610.528 81.3997 607.562V607.551C81.3997 605.265 80.0923 603.936 76.7854 603.2L75.0276 602.804C72.8743 602.332 72.0063 601.475 72.0063 600.212V600.201C72.0063 598.542 73.5334 597.608 75.511 597.597C77.5764 597.586 78.8948 598.619 79.1145 600.014L79.1365 600.157H81.114L81.103 600.003C80.9382 597.641 78.73 595.773 75.5659 595.773C72.292 595.773 69.9958 597.63 69.9849 600.256V600.267C69.9849 602.563 71.3582 604.024 74.5332 604.727L76.291 605.112C78.4663 605.595 79.3782 606.496 79.3782 607.814V607.825C79.3782 609.44 77.8071 610.55 75.6538 610.55C73.3687 610.55 71.7207 609.55 71.5779 607.968L71.5669 607.847H69.5894L69.6003 607.968C69.8311 610.55 72.0723 612.374 75.5439 612.374Z" fill="black"/>
<g filter="url(#filter20_d_1_442)">
<path d="M49.4 583H26.6C24.0595 583 22 585.059 22 587.6V620.4C22 622.941 24.0595 625 26.6 625H49.4C51.9405 625 54 622.941 54 620.4V587.6C54 585.059 51.9405 583 49.4 583Z" fill="#FCFCFE"/>
</g>
<path d="M31.1775 612H33.2539L34.8469 607.463H41.1531L42.7461 612H44.8225L38.9778 596.147H37.0222L31.1775 612ZM37.9121 598.707H38.0879L40.5708 605.782H35.4292L37.9121 598.707Z" fill="black"/>
<g filter="url(#filter21_d_1_442)">
<path d="M367.4 529H344.6C342.059 529 340 531.059 340 533.6V566.4C340 568.941 342.059 571 344.6 571H367.4C369.941 571 372 568.941 372 566.4V533.6C372 531.059 369.941 529 367.4 529Z" fill="#FCFCFE"/>
</g>
<path d="M351.369 558H353.347V552.342H357.346C360.323 552.342 362.433 550.244 362.433 547.233V547.211C362.433 544.201 360.323 542.147 357.346 542.147H351.369V558ZM356.841 543.905C359.104 543.905 360.411 545.146 360.411 547.233V547.255C360.411 549.343 359.104 550.584 356.841 550.584H353.347V543.905H356.841Z" fill="black"/>
<g filter="url(#filter22_d_1_442)">
<path d="M330.4 529H307.6C305.059 529 303 531.059 303 533.6V566.4C303 568.941 305.059 571 307.6 571H330.4C332.941 571 335 568.941 335 566.4V533.6C335 531.059 332.941 529 330.4 529Z" fill="#FCFCFE"/>
</g>
<path d="M319 558.374C323.526 558.374 326.273 555.133 326.273 550.079V550.057C326.273 544.981 323.504 541.773 319 541.773C314.518 541.773 311.727 544.97 311.727 550.057V550.079C311.727 555.144 314.452 558.374 319 558.374ZM319 556.55C315.704 556.55 313.749 554.001 313.749 550.079V550.057C313.749 546.102 315.77 543.597 319 543.597C322.241 543.597 324.251 546.102 324.251 550.057V550.079C324.251 554.001 322.252 556.55 319 556.55Z" fill="black"/>
<g filter="url(#filter23_d_1_442)">
<path d="M292.4 529H269.6C267.059 529 265 531.059 265 533.6V566.4C265 568.941 267.059 571 269.6 571H292.4C294.941 571 297 568.941 297 566.4V533.6C297 531.059 294.941 529 292.4 529Z" fill="#FCFCFE"/>
</g>
<path d="M280.511 558H282.489V542.147H280.511V558Z" fill="black"/>
<g filter="url(#filter24_d_1_442)">
<path d="M255.4 529H232.6C230.059 529 228 531.059 228 533.6V566.4C228 568.941 230.059 571 232.6 571H255.4C257.941 571 260 568.941 260 566.4V533.6C260 531.059 257.941 529 255.4 529Z" fill="#FCFCFE"/>
</g>
<path d="M244.511 558.374C248.444 558.374 250.795 556 250.795 552.551V542.147H248.818V552.419C248.818 554.858 247.258 556.55 244.511 556.55C241.764 556.55 240.182 554.858 240.182 552.419V542.147H238.205V552.551C238.205 556 240.578 558.374 244.511 558.374Z" fill="black"/>
<g filter="url(#filter25_d_1_442)">
<path d="M217.4 529H194.6C192.059 529 190 531.059 190 533.6V566.4C190 568.941 192.059 571 194.6 571H217.4C219.941 571 222 568.941 222 566.4V533.6C222 531.059 219.941 529 217.4 529Z" fill="#FCFCFE"/>
</g>
<path d="M205.511 558H207.489V551.177L213.114 542.147H210.862L206.588 549.189H206.412L202.138 542.147H199.886L205.511 551.177V558Z" fill="black"/>
<g filter="url(#filter26_d_1_442)">
<path d="M180.4 529H157.6C155.059 529 153 531.059 153 533.6V566.4C153 568.941 155.059 571 157.6 571H180.4C182.941 571 185 568.941 185 566.4V533.6C185 531.059 182.941 529 180.4 529Z" fill="#FCFCFE"/>
</g>
<path d="M168.511 558H170.489V543.927H175.597V542.147H163.403V543.927H168.511V558Z" fill="black"/>
<g filter="url(#filter27_d_1_442)">
<path d="M142.4 529H119.6C117.059 529 115 531.059 115 533.6V566.4C115 568.941 117.059 571 119.6 571H142.4C144.941 571 147 568.941 147 566.4V533.6C147 531.059 144.941 529 142.4 529Z" fill="#FCFCFE"/>
</g>
<path d="M126.172 558H128.149V551.727H132.049L135.444 558H137.762L134.093 551.419C136.081 550.793 137.279 549.079 137.279 546.882V546.86C137.279 544.014 135.279 542.147 132.225 542.147H126.172V558ZM128.149 549.969V543.905H131.961C134.005 543.905 135.235 545.036 135.235 546.926V546.948C135.235 548.881 134.082 549.969 132.049 549.969H128.149Z" fill="black"/>
<g filter="url(#filter28_d_1_442)">
<path d="M105.4 529H82.6C80.0595 529 78 531.059 78 533.6V566.4C78 568.941 80.0595 571 82.6 571H105.4C107.941 571 110 568.941 110 566.4V533.6C110 531.059 107.941 529 105.4 529Z" fill="#FCFCFE"/>
</g>
<path d="M89.3198 558H99.1416V556.22H91.2974V550.771H98.7351V549.013H91.2974V543.927H99.1416V542.147H89.3198V558Z" fill="black"/>
<g filter="url(#filter29_d_1_442)">
<path d="M67.4 529H44.6C42.0595 529 40 531.059 40 533.6V566.4C40 568.941 42.0595 571 44.6 571H67.4C69.9405 571 72 568.941 72 566.4V533.6C72 531.059 69.9405 529 67.4 529Z" fill="#FCFCFE"/>
</g>
<path d="M50.4189 558H52.2866L55.9341 545.487H56.0659L59.7134 558H61.5811L65.8987 542.147H63.8333L60.6802 555.034H60.5483L56.9998 542.147H55.0002L51.4517 555.034H51.3198L48.1667 542.147H46.1013L50.4189 558Z" fill="black"/>
<g filter="url(#filter30_d_1_442)">
<path d="M30.4 529H7.6C5.05949 529 3 531.059 3 533.6V566.4C3 568.941 5.05949 571 7.6 571H30.4C32.9405 571 35 568.941 35 566.4V533.6C35 531.059 32.9405 529 30.4 529Z" fill="#FCFCFE"/>
</g>
<path d="M19 558.374C20.0657 558.374 21.0325 558.198 21.9004 557.846L23.3066 559.791H25.5259L23.4604 556.956C25.2621 555.539 26.2729 553.144 26.2729 550.079V550.057C26.2729 544.981 23.5044 541.773 19 541.773C14.5176 541.773 11.7271 544.97 11.7271 550.057V550.079C11.7271 555.144 14.4517 558.374 19 558.374ZM19 556.55C15.7041 556.55 13.7485 554.001 13.7485 550.079V550.057C13.7485 546.102 15.77 543.597 19 543.597C22.241 543.597 24.2514 546.102 24.2514 550.057V550.079C24.2514 552.397 23.5483 554.243 22.3069 555.363L20.9226 553.463H18.7034L20.7467 556.275C20.2194 556.451 19.6262 556.55 19 556.55Z" fill="black"/>
<path d="M318.5 259H58.5C50.4919 259 44 265.492 44 273.5C44 281.508 50.4919 288 58.5 288H318.5C326.508 288 333 281.508 333 273.5C333 265.492 326.508 259 318.5 259Z" fill="#E8E8E8"/>
<path d="M161.656 269.257V271.941H165.517V272.887H161.656V276H160.556V268.3H165.99V269.257H161.656ZM166.977 270.17H168.033V276H166.977V270.17ZM167.505 269.048C167.299 269.048 167.127 268.982 166.988 268.85C166.856 268.718 166.79 268.557 166.79 268.366C166.79 268.175 166.856 268.014 166.988 267.882C167.127 267.743 167.299 267.673 167.505 267.673C167.71 267.673 167.879 267.739 168.011 267.871C168.15 267.996 168.22 268.153 168.22 268.344C168.22 268.542 168.15 268.711 168.011 268.85C167.879 268.982 167.71 269.048 167.505 269.048ZM170.761 271.149C170.944 270.812 171.216 270.555 171.575 270.379C171.934 270.203 172.371 270.115 172.884 270.115V271.138C172.825 271.131 172.745 271.127 172.642 271.127C172.07 271.127 171.619 271.299 171.289 271.644C170.966 271.981 170.805 272.465 170.805 273.096V276H169.749V270.17H170.761V271.149ZM175.601 276.066C175.124 276.066 174.666 276.004 174.226 275.879C173.786 275.747 173.441 275.582 173.192 275.384L173.632 274.548C173.888 274.731 174.2 274.878 174.567 274.988C174.933 275.098 175.304 275.153 175.678 275.153C176.602 275.153 177.064 274.889 177.064 274.361C177.064 274.185 177.001 274.046 176.877 273.943C176.752 273.84 176.594 273.767 176.404 273.723C176.22 273.672 175.956 273.617 175.612 273.558C175.142 273.485 174.757 273.4 174.457 273.305C174.163 273.21 173.91 273.048 173.698 272.821C173.485 272.594 173.379 272.275 173.379 271.864C173.379 271.336 173.599 270.914 174.039 270.599C174.479 270.276 175.069 270.115 175.81 270.115C176.198 270.115 176.587 270.163 176.976 270.258C177.364 270.353 177.683 270.482 177.933 270.643L177.482 271.479C177.005 271.171 176.444 271.017 175.799 271.017C175.351 271.017 175.01 271.09 174.776 271.237C174.541 271.384 174.424 271.578 174.424 271.82C174.424 272.011 174.49 272.161 174.622 272.271C174.754 272.381 174.915 272.462 175.106 272.513C175.304 272.564 175.579 272.623 175.931 272.689C176.4 272.77 176.778 272.858 177.064 272.953C177.357 273.041 177.606 273.195 177.812 273.415C178.017 273.635 178.12 273.943 178.12 274.339C178.12 274.867 177.892 275.289 177.438 275.604C176.99 275.912 176.378 276.066 175.601 276.066ZM182.417 275.659C182.263 275.791 182.073 275.894 181.845 275.967C181.618 276.033 181.383 276.066 181.141 276.066C180.555 276.066 180.1 275.908 179.777 275.593C179.455 275.278 179.293 274.827 179.293 274.24V271.039H178.303V270.17H179.293V268.894H180.349V270.17H182.021V271.039H180.349V274.196C180.349 274.511 180.426 274.753 180.58 274.922C180.742 275.091 180.969 275.175 181.262 275.175C181.585 275.175 181.86 275.083 182.087 274.9L182.417 275.659ZM189.161 270.115C189.902 270.115 190.488 270.331 190.921 270.764C191.361 271.189 191.581 271.816 191.581 272.645V276H190.525V272.766C190.525 272.201 190.389 271.776 190.118 271.49C189.847 271.204 189.458 271.061 188.952 271.061C188.38 271.061 187.929 271.23 187.599 271.567C187.269 271.897 187.104 272.374 187.104 272.997V276H186.048V270.17H187.06V271.05C187.273 270.749 187.559 270.518 187.918 270.357C188.285 270.196 188.699 270.115 189.161 270.115ZM195.358 270.115C196.165 270.115 196.781 270.313 197.206 270.709C197.639 271.105 197.855 271.695 197.855 272.48V276H196.854V275.23C196.678 275.501 196.425 275.71 196.095 275.857C195.773 275.996 195.388 276.066 194.94 276.066C194.288 276.066 193.763 275.908 193.367 275.593C192.979 275.278 192.784 274.863 192.784 274.35C192.784 273.837 192.971 273.426 193.345 273.118C193.719 272.803 194.313 272.645 195.127 272.645H196.799V272.436C196.799 271.981 196.667 271.633 196.403 271.391C196.139 271.149 195.751 271.028 195.237 271.028C194.893 271.028 194.555 271.087 194.225 271.204C193.895 271.314 193.617 271.464 193.389 271.655L192.949 270.863C193.25 270.621 193.609 270.438 194.027 270.313C194.445 270.181 194.889 270.115 195.358 270.115ZM195.116 275.252C195.52 275.252 195.868 275.164 196.161 274.988C196.455 274.805 196.667 274.548 196.799 274.218V273.404H195.171C194.277 273.404 193.829 273.705 193.829 274.306C193.829 274.599 193.943 274.83 194.17 274.999C194.398 275.168 194.713 275.252 195.116 275.252ZM206.803 270.115C207.536 270.115 208.115 270.328 208.541 270.753C208.973 271.178 209.19 271.809 209.19 272.645V276H208.134V272.766C208.134 272.201 208.002 271.776 207.738 271.49C207.481 271.204 207.111 271.061 206.627 271.061C206.091 271.061 205.666 271.23 205.351 271.567C205.035 271.897 204.878 272.374 204.878 272.997V276H203.822V272.766C203.822 272.201 203.69 271.776 203.426 271.49C203.169 271.204 202.799 271.061 202.315 271.061C201.779 271.061 201.354 271.23 201.039 271.567C200.723 271.897 200.566 272.374 200.566 272.997V276H199.51V270.17H200.522V271.039C200.734 270.738 201.013 270.511 201.358 270.357C201.702 270.196 202.095 270.115 202.535 270.115C202.989 270.115 203.393 270.207 203.745 270.39C204.097 270.573 204.368 270.841 204.559 271.193C204.779 270.856 205.083 270.592 205.472 270.401C205.868 270.21 206.311 270.115 206.803 270.115ZM216.134 273.118C216.134 273.199 216.127 273.305 216.112 273.437H211.382C211.448 273.95 211.672 274.365 212.053 274.68C212.442 274.988 212.922 275.142 213.494 275.142C214.191 275.142 214.752 274.907 215.177 274.438L215.76 275.12C215.496 275.428 215.166 275.663 214.77 275.824C214.381 275.985 213.945 276.066 213.461 276.066C212.845 276.066 212.299 275.941 211.822 275.692C211.345 275.435 210.975 275.08 210.711 274.625C210.454 274.17 210.326 273.657 210.326 273.085C210.326 272.52 210.451 272.011 210.7 271.556C210.957 271.101 211.305 270.749 211.745 270.5C212.192 270.243 212.695 270.115 213.252 270.115C213.809 270.115 214.304 270.243 214.737 270.5C215.177 270.749 215.518 271.101 215.76 271.556C216.009 272.011 216.134 272.531 216.134 273.118ZM213.252 271.006C212.746 271.006 212.321 271.16 211.976 271.468C211.639 271.776 211.441 272.179 211.382 272.678H215.122C215.063 272.187 214.862 271.787 214.517 271.479C214.18 271.164 213.758 271.006 213.252 271.006Z" fill="#7B7B7B"/>
<path d="M317.5 323H57.5C49.4919 323 43 329.492 43 337.5C43 345.508 49.4919 352 57.5 352H317.5C325.508 352 332 345.508 332 337.5C332 329.492 325.508 323 317.5 323Z" fill="#E8E8E8"/>
<path d="M165.277 332.3C166.275 332.3 167.059 332.538 167.631 333.015C168.203 333.492 168.489 334.148 168.489 334.984C168.489 335.82 168.203 336.476 167.631 336.953C167.059 337.43 166.275 337.668 165.277 337.668H163.374V340H162.274V332.3H165.277ZM165.244 336.711C165.941 336.711 166.473 336.564 166.839 336.271C167.206 335.97 167.389 335.541 167.389 334.984C167.389 334.427 167.206 334.001 166.839 333.708C166.473 333.407 165.941 333.257 165.244 333.257H163.374V336.711H165.244ZM171.721 334.115C172.527 334.115 173.143 334.313 173.569 334.709C174.001 335.105 174.218 335.695 174.218 336.48V340H173.217V339.23C173.041 339.501 172.788 339.71 172.458 339.857C172.135 339.996 171.75 340.066 171.303 340.066C170.65 340.066 170.126 339.908 169.73 339.593C169.341 339.278 169.147 338.863 169.147 338.35C169.147 337.837 169.334 337.426 169.708 337.118C170.082 336.803 170.676 336.645 171.49 336.645H173.162V336.436C173.162 335.981 173.03 335.633 172.766 335.391C172.502 335.149 172.113 335.028 171.6 335.028C171.255 335.028 170.918 335.087 170.588 335.204C170.258 335.314 169.979 335.464 169.752 335.655L169.312 334.863C169.612 334.621 169.972 334.438 170.39 334.313C170.808 334.181 171.251 334.115 171.721 334.115ZM171.479 339.252C171.882 339.252 172.23 339.164 172.524 338.988C172.817 338.805 173.03 338.548 173.162 338.218V337.404H171.534C170.639 337.404 170.192 337.705 170.192 338.306C170.192 338.599 170.305 338.83 170.533 338.999C170.76 339.168 171.075 339.252 171.479 339.252ZM177.544 340.066C177.067 340.066 176.609 340.004 176.169 339.879C175.729 339.747 175.384 339.582 175.135 339.384L175.575 338.548C175.832 338.731 176.143 338.878 176.51 338.988C176.877 339.098 177.247 339.153 177.621 339.153C178.545 339.153 179.007 338.889 179.007 338.361C179.007 338.185 178.945 338.046 178.82 337.943C178.695 337.84 178.538 337.767 178.347 337.723C178.164 337.672 177.9 337.617 177.555 337.558C177.086 337.485 176.701 337.4 176.4 337.305C176.107 337.21 175.854 337.048 175.641 336.821C175.428 336.594 175.322 336.275 175.322 335.864C175.322 335.336 175.542 334.914 175.982 334.599C176.422 334.276 177.012 334.115 177.753 334.115C178.142 334.115 178.53 334.163 178.919 334.258C179.308 334.353 179.627 334.482 179.876 334.643L179.425 335.479C178.948 335.171 178.387 335.017 177.742 335.017C177.295 335.017 176.954 335.09 176.719 335.237C176.484 335.384 176.367 335.578 176.367 335.82C176.367 336.011 176.433 336.161 176.565 336.271C176.697 336.381 176.858 336.462 177.049 336.513C177.247 336.564 177.522 336.623 177.874 336.689C178.343 336.77 178.721 336.858 179.007 336.953C179.3 337.041 179.55 337.195 179.755 337.415C179.96 337.635 180.063 337.943 180.063 338.339C180.063 338.867 179.836 339.289 179.381 339.604C178.934 339.912 178.321 340.066 177.544 340.066ZM182.755 340.066C182.278 340.066 181.82 340.004 181.38 339.879C180.94 339.747 180.595 339.582 180.346 339.384L180.786 338.548C181.042 338.731 181.354 338.878 181.721 338.988C182.087 339.098 182.458 339.153 182.832 339.153C183.756 339.153 184.218 338.889 184.218 338.361C184.218 338.185 184.155 338.046 184.031 337.943C183.906 337.84 183.748 337.767 183.558 337.723C183.374 337.672 183.11 337.617 182.766 337.558C182.296 337.485 181.911 337.4 181.611 337.305C181.317 337.21 181.064 337.048 180.852 336.821C180.639 336.594 180.533 336.275 180.533 335.864C180.533 335.336 180.753 334.914 181.193 334.599C181.633 334.276 182.223 334.115 182.964 334.115C183.352 334.115 183.741 334.163 184.13 334.258C184.518 334.353 184.837 334.482 185.087 334.643L184.636 335.479C184.159 335.171 183.598 335.017 182.953 335.017C182.505 335.017 182.164 335.09 181.93 335.237C181.695 335.384 181.578 335.578 181.578 335.82C181.578 336.011 181.644 336.161 181.776 336.271C181.908 336.381 182.069 336.462 182.26 336.513C182.458 336.564 182.733 336.623 183.085 336.689C183.554 336.77 183.932 336.858 184.218 336.953C184.511 337.041 184.76 337.195 184.966 337.415C185.171 337.635 185.274 337.943 185.274 338.339C185.274 338.867 185.046 339.289 184.592 339.604C184.144 339.912 183.532 340.066 182.755 340.066ZM195.008 334.17L192.83 340H191.818L190.135 335.578L188.43 340H187.418L185.251 334.17H186.252L187.946 338.812L189.706 334.17H190.597L192.324 338.834L194.062 334.17H195.008ZM198.115 340.066C197.536 340.066 197.015 339.938 196.553 339.681C196.091 339.424 195.728 339.072 195.464 338.625C195.208 338.17 195.079 337.657 195.079 337.085C195.079 336.513 195.208 336.003 195.464 335.556C195.728 335.101 196.091 334.749 196.553 334.5C197.015 334.243 197.536 334.115 198.115 334.115C198.695 334.115 199.212 334.243 199.666 334.5C200.128 334.749 200.488 335.101 200.744 335.556C201.008 336.003 201.14 336.513 201.14 337.085C201.14 337.657 201.008 338.17 200.744 338.625C200.488 339.072 200.128 339.424 199.666 339.681C199.212 339.938 198.695 340.066 198.115 340.066ZM198.115 339.142C198.489 339.142 198.823 339.058 199.116 338.889C199.417 338.713 199.652 338.471 199.82 338.163C199.989 337.848 200.073 337.488 200.073 337.085C200.073 336.682 199.989 336.326 199.82 336.018C199.652 335.703 199.417 335.461 199.116 335.292C198.823 335.123 198.489 335.039 198.115 335.039C197.741 335.039 197.404 335.123 197.103 335.292C196.81 335.461 196.575 335.703 196.399 336.018C196.231 336.326 196.146 336.682 196.146 337.085C196.146 337.488 196.231 337.848 196.399 338.163C196.575 338.471 196.81 338.713 197.103 338.889C197.404 339.058 197.741 339.142 198.115 339.142ZM203.313 335.149C203.496 334.812 203.767 334.555 204.127 334.379C204.486 334.203 204.922 334.115 205.436 334.115V335.138C205.377 335.131 205.296 335.127 205.194 335.127C204.622 335.127 204.171 335.299 203.841 335.644C203.518 335.981 203.357 336.465 203.357 337.096V340H202.301V334.17H203.313V335.149ZM211.884 331.838V340H210.872V339.076C210.637 339.399 210.34 339.644 209.981 339.813C209.621 339.982 209.225 340.066 208.793 340.066C208.228 340.066 207.722 339.941 207.275 339.692C206.827 339.443 206.475 339.094 206.219 338.647C205.969 338.192 205.845 337.672 205.845 337.085C205.845 336.498 205.969 335.981 206.219 335.534C206.475 335.087 206.827 334.738 207.275 334.489C207.722 334.24 208.228 334.115 208.793 334.115C209.211 334.115 209.596 334.196 209.948 334.357C210.3 334.511 210.593 334.742 210.828 335.05V331.838H211.884ZM208.881 339.142C209.247 339.142 209.581 339.058 209.882 338.889C210.182 338.713 210.417 338.471 210.586 338.163C210.754 337.848 210.839 337.488 210.839 337.085C210.839 336.682 210.754 336.326 210.586 336.018C210.417 335.703 210.182 335.461 209.882 335.292C209.581 335.123 209.247 335.039 208.881 335.039C208.507 335.039 208.169 335.123 207.869 335.292C207.575 335.461 207.341 335.703 207.165 336.018C206.996 336.326 206.912 336.682 206.912 337.085C206.912 337.488 206.996 337.848 207.165 338.163C207.341 338.471 207.575 338.713 207.869 338.889C208.169 339.058 208.507 339.142 208.881 339.142Z" fill="#7B7B7B"/>
<mask id="mask1_1_442" style="mask-type:luminance" maskUnits="userSpaceOnUse" x="302" y="330" width="15" height="15">
<path d="M317 330H302V345H317V330Z" fill="white"/>
</mask>
<g mask="url(#mask1_1_442)">
<path d="M310.825 338.825C310.653 339.009 310.446 339.157 310.216 339.259C309.986 339.362 309.738 339.417 309.486 339.421C309.235 339.426 308.984 339.38 308.751 339.285C308.518 339.191 308.305 339.051 308.127 338.873C307.949 338.695 307.809 338.482 307.715 338.249C307.62 338.016 307.574 337.765 307.579 337.514C307.583 337.262 307.638 337.014 307.741 336.784C307.843 336.554 307.991 336.347 308.175 336.175M313.213 341.213C312.144 342.027 310.843 342.478 309.5 342.5C305.125 342.5 302.625 337.5 302.625 337.5C303.402 336.051 304.481 334.785 305.787 333.788L313.213 341.213ZM308.187 332.65C308.618 332.549 309.058 332.499 309.5 332.5C313.875 332.5 316.375 337.5 316.375 337.5C315.996 338.21 315.543 338.878 315.025 339.494L308.187 332.65Z" stroke="#5C5C5C" stroke-linecap="round" stroke-linejoin="round"/>
<path d="M302.625 330.625L316.375 344.375" stroke="#5C5C5C" stroke-linecap="round" stroke-linejoin="round"/>
</g>
<path d="M317 451H58C49.7157 451 43 457.716 43 466V482C43 490.284 49.7157 497 58 497H317C325.284 497 332 490.284 332 482V466C332 457.716 325.284 451 317 451Z" fill="#4E55D7"/>
<path d="M168.131 469.2H170.399V477.152H175.313V479H168.131V469.2ZM179.656 479.112C178.862 479.112 178.148 478.949 177.514 478.622C176.888 478.286 176.398 477.824 176.044 477.236C175.689 476.648 175.512 475.981 175.512 475.234C175.512 474.487 175.689 473.82 176.044 473.232C176.398 472.644 176.888 472.187 177.514 471.86C178.148 471.524 178.862 471.356 179.656 471.356C180.449 471.356 181.158 471.524 181.784 471.86C182.409 472.187 182.899 472.644 183.254 473.232C183.608 473.82 183.786 474.487 183.786 475.234C183.786 475.981 183.608 476.648 183.254 477.236C182.899 477.824 182.409 478.286 181.784 478.622C181.158 478.949 180.449 479.112 179.656 479.112ZM179.656 477.32C180.216 477.32 180.673 477.133 181.028 476.76C181.392 476.377 181.574 475.869 181.574 475.234C181.574 474.599 181.392 474.095 181.028 473.722C180.673 473.339 180.216 473.148 179.656 473.148C179.096 473.148 178.634 473.339 178.27 473.722C177.906 474.095 177.724 474.599 177.724 475.234C177.724 475.869 177.906 476.377 178.27 476.76C178.634 477.133 179.096 477.32 179.656 477.32ZM192.716 471.468V477.74C192.716 479.121 192.356 480.148 191.638 480.82C190.919 481.492 189.869 481.828 188.488 481.828C187.76 481.828 187.069 481.739 186.416 481.562C185.762 481.385 185.221 481.128 184.792 480.792L185.66 479.224C185.977 479.485 186.378 479.691 186.864 479.84C187.349 479.999 187.834 480.078 188.32 480.078C189.076 480.078 189.631 479.905 189.986 479.56C190.35 479.224 190.532 478.711 190.532 478.02V477.698C189.962 478.323 189.169 478.636 188.152 478.636C187.461 478.636 186.826 478.487 186.248 478.188C185.678 477.88 185.226 477.451 184.89 476.9C184.554 476.349 184.386 475.715 184.386 474.996C184.386 474.277 184.554 473.643 184.89 473.092C185.226 472.541 185.678 472.117 186.248 471.818C186.826 471.51 187.461 471.356 188.152 471.356C189.244 471.356 190.074 471.715 190.644 472.434V471.468H192.716ZM188.586 476.844C189.164 476.844 189.636 476.676 190 476.34C190.373 475.995 190.56 475.547 190.56 474.996C190.56 474.445 190.373 474.002 190 473.666C189.636 473.321 189.164 473.148 188.586 473.148C188.007 473.148 187.531 473.321 187.158 473.666C186.784 474.002 186.598 474.445 186.598 474.996C186.598 475.547 186.784 475.995 187.158 476.34C187.531 476.676 188.007 476.844 188.586 476.844ZM194.448 471.468H196.632V479H194.448V471.468ZM195.54 470.418C195.139 470.418 194.812 470.301 194.56 470.068C194.308 469.835 194.182 469.545 194.182 469.2C194.182 468.855 194.308 468.565 194.56 468.332C194.812 468.099 195.139 467.982 195.54 467.982C195.942 467.982 196.268 468.094 196.52 468.318C196.772 468.542 196.898 468.822 196.898 469.158C196.898 469.522 196.772 469.825 196.52 470.068C196.268 470.301 195.942 470.418 195.54 470.418ZM202.937 471.356C203.871 471.356 204.622 471.636 205.191 472.196C205.77 472.756 206.059 473.587 206.059 474.688V479H203.875V475.024C203.875 474.427 203.745 473.983 203.483 473.694C203.222 473.395 202.844 473.246 202.349 473.246C201.799 473.246 201.36 473.419 201.033 473.764C200.707 474.1 200.543 474.604 200.543 475.276V479H198.359V471.468H200.445V472.35C200.735 472.033 201.094 471.79 201.523 471.622C201.953 471.445 202.424 471.356 202.937 471.356Z" fill="#EAEAEA"/>
</g>
</g>
<defs>
<filter id="filter0_d_1_442" x="284" y="691" width="88" height="43" filterUnits="userSpaceOnUse" color-interpolation-filters="sRGB">
<feFlood flood-opacity="0" result="BackgroundImageFix"/>
<feColorMatrix in="SourceAlpha" type="matrix" values="0 0 0 0 0 0 0 0 0 0 0 0 0 0 0 0 0 0 127 0" result="hardAlpha"/>
<feOffset dy="1"/>
<feColorMatrix type="matrix" values="0 0 0 0 0.537255 0 0 0 0 0.541176 0 0 0 0 0.552941 0 0 0 1 0"/>
<feBlend mode="normal" in2="BackgroundImageFix" result="effect1_dropShadow_1_442"/>
<feBlend mode="normal" in="SourceGraphic" in2="effect1_dropShadow_1_442" result="shape"/>
</filter>
<filter id="filter1_d_1_442" x="96" y="691" width="182" height="43" filterUnits="userSpaceOnUse" color-interpolation-filters="sRGB">
<feFlood flood-opacity="0" result="BackgroundImageFix"/>
<feColorMatrix in="SourceAlpha" type="matrix" values="0 0 0 0 0 0 0 0 0 0 0 0 0 0 0 0 0 0 127 0" result="hardAlpha"/>
<feOffset dy="1"/>
<feColorMatrix type="matrix" values="0 0 0 0 0.537255 0 0 0 0 0.541176 0 0 0 0 0.552941 0 0 0 1 0"/>
<feBlend mode="normal" in2="BackgroundImageFix" result="effect1_dropShadow_1_442"/>
<feBlend mode="normal" in="SourceGraphic" in2="effect1_dropShadow_1_442" result="shape"/>
</filter>
<filter id="filter2_d_1_442" x="3" y="691" width="87" height="43" filterUnits="userSpaceOnUse" color-interpolation-filters="sRGB">
<feFlood flood-opacity="0" result="BackgroundImageFix"/>
<feColorMatrix in="SourceAlpha" type="matrix" values="0 0 0 0 0 0 0 0 0 0 0 0 0 0 0 0 0 0 127 0" result="hardAlpha"/>
<feOffset dy="1"/>
<feColorMatrix type="matrix" values="0 0 0 0 0.537255 0 0 0 0 0.541176 0 0 0 0 0.552941 0 0 0 1 0"/>
<feBlend mode="normal" in2="BackgroundImageFix" result="effect1_dropShadow_1_442"/>
<feBlend mode="normal" in="SourceGraphic" in2="effect1_dropShadow_1_442" result="shape"/>
</filter>
<filter id="filter3_d_1_442" x="330" y="637" width="42" height="43" filterUnits="userSpaceOnUse" color-interpolation-filters="sRGB">
<feFlood flood-opacity="0" result="BackgroundImageFix"/>
<feColorMatrix in="SourceAlpha" type="matrix" values="0 0 0 0 0 0 0 0 0 0 0 0 0 0 0 0 0 0 127 0" result="hardAlpha"/>
<feOffset dy="1"/>
<feColorMatrix type="matrix" values="0 0 0 0 0.537255 0 0 0 0 0.541176 0 0 0 0 0.552941 0 0 0 1 0"/>
<feBlend mode="normal" in2="BackgroundImageFix" result="effect1_dropShadow_1_442"/>
<feBlend mode="normal" in="SourceGraphic" in2="effect1_dropShadow_1_442" result="shape"/>
</filter>
<filter id="filter4_d_1_442" x="3" y="637" width="42" height="43" filterUnits="userSpaceOnUse" color-interpolation-filters="sRGB">
<feFlood flood-opacity="0" result="BackgroundImageFix"/>
<feColorMatrix in="SourceAlpha" type="matrix" values="0 0 0 0 0 0 0 0 0 0 0 0 0 0 0 0 0 0 127 0" result="hardAlpha"/>
<feOffset dy="1"/>
<feColorMatrix type="matrix" values="0 0 0 0 0.537255 0 0 0 0 0.541176 0 0 0 0 0.552941 0 0 0 1 0"/>
<feBlend mode="normal" in2="BackgroundImageFix" result="effect1_dropShadow_1_442"/>
<feBlend mode="normal" in="SourceGraphic" in2="effect1_dropShadow_1_442" result="shape"/>
</filter>
<filter id="filter5_d_1_442" x="285" y="637" width="32" height="43" filterUnits="userSpaceOnUse" color-interpolation-filters="sRGB">
<feFlood flood-opacity="0" result="BackgroundImageFix"/>
<feColorMatrix in="SourceAlpha" type="matrix" values="0 0 0 0 0 0 0 0 0 0 0 0 0 0 0 0 0 0 127 0" result="hardAlpha"/>
<feOffset dy="1"/>
<feColorMatrix type="matrix" values="0 0 0 0 0.537255 0 0 0 0 0.541176 0 0 0 0 0.552941 0 0 0 1 0"/>
<feBlend mode="normal" in2="BackgroundImageFix" result="effect1_dropShadow_1_442"/>
<feBlend mode="normal" in="SourceGraphic" in2="effect1_dropShadow_1_442" result="shape"/>
</filter>
<filter id="filter6_d_1_442" x="247" y="637" width="32" height="43" filterUnits="userSpaceOnUse" color-interpolation-filters="sRGB">
<feFlood flood-opacity="0" result="BackgroundImageFix"/>
<feColorMatrix in="SourceAlpha" type="matrix" values="0 0 0 0 0 0 0 0 0 0 0 0 0 0 0 0 0 0 127 0" result="hardAlpha"/>
<feOffset dy="1"/>
<feColorMatrix type="matrix" values="0 0 0 0 0.537255 0 0 0 0 0.541176 0 0 0 0 0.552941 0 0 0 1 0"/>
<feBlend mode="normal" in2="BackgroundImageFix" result="effect1_dropShadow_1_442"/>
<feBlend mode="normal" in="SourceGraphic" in2="effect1_dropShadow_1_442" result="shape"/>
</filter>
<filter id="filter7_d_1_442" x="209" y="637" width="32" height="43" filterUnits="userSpaceOnUse" color-interpolation-filters="sRGB">
<feFlood flood-opacity="0" result="BackgroundImageFix"/>
<feColorMatrix in="SourceAlpha" type="matrix" values="0 0 0 0 0 0 0 0 0 0 0 0 0 0 0 0 0 0 127 0" result="hardAlpha"/>
<feOffset dy="1"/>
<feColorMatrix type="matrix" values="0 0 0 0 0.537255 0 0 0 0 0.541176 0 0 0 0 0.552941 0 0 0 1 0"/>
<feBlend mode="normal" in2="BackgroundImageFix" result="effect1_dropShadow_1_442"/>
<feBlend mode="normal" in="SourceGraphic" in2="effect1_dropShadow_1_442" result="shape"/>
</filter>
<filter id="filter8_d_1_442" x="172" y="637" width="32" height="43" filterUnits="userSpaceOnUse" color-interpolation-filters="sRGB">
<feFlood flood-opacity="0" result="BackgroundImageFix"/>
<feColorMatrix in="SourceAlpha" type="matrix" values="0 0 0 0 0 0 0 0 0 0 0 0 0 0 0 0 0 0 127 0" result="hardAlpha"/>
<feOffset dy="1"/>
<feColorMatrix type="matrix" values="0 0 0 0 0.537255 0 0 0 0 0.541176 0 0 0 0 0.552941 0 0 0 1 0"/>
<feBlend mode="normal" in2="BackgroundImageFix" result="effect1_dropShadow_1_442"/>
<feBlend mode="normal" in="SourceGraphic" in2="effect1_dropShadow_1_442" result="shape"/>
</filter>
<filter id="filter9_d_1_442" x="134" y="637" width="32" height="43" filterUnits="userSpaceOnUse" color-interpolation-filters="sRGB">
<feFlood flood-opacity="0" result="BackgroundImageFix"/>
<feColorMatrix in="SourceAlpha" type="matrix" values="0 0 0 0 0 0 0 0 0 0 0 0 0 0 0 0 0 0 127 0" result="hardAlpha"/>
<feOffset dy="1"/>
<feColorMatrix type="matrix" values="0 0 0 0 0.537255 0 0 0 0 0.541176 0 0 0 0 0.552941 0 0 0 1 0"/>
<feBlend mode="normal" in2="BackgroundImageFix" result="effect1_dropShadow_1_442"/>
<feBlend mode="normal" in="SourceGraphic" in2="effect1_dropShadow_1_442" result="shape"/>
</filter>
<filter id="filter10_d_1_442" x="97" y="637" width="32" height="43" filterUnits="userSpaceOnUse" color-interpolation-filters="sRGB">
<feFlood flood-opacity="0" result="BackgroundImageFix"/>
<feColorMatrix in="SourceAlpha" type="matrix" values="0 0 0 0 0 0 0 0 0 0 0 0 0 0 0 0 0 0 127 0" result="hardAlpha"/>
<feOffset dy="1"/>
<feColorMatrix type="matrix" values="0 0 0 0 0.537255 0 0 0 0 0.541176 0 0 0 0 0.552941 0 0 0 1 0"/>
<feBlend mode="normal" in2="BackgroundImageFix" result="effect1_dropShadow_1_442"/>
<feBlend mode="normal" in="SourceGraphic" in2="effect1_dropShadow_1_442" result="shape"/>
</filter>
<filter id="filter11_d_1_442" x="59" y="637" width="32" height="43" filterUnits="userSpaceOnUse" color-interpolation-filters="sRGB">
<feFlood flood-opacity="0" result="BackgroundImageFix"/>
<feColorMatrix in="SourceAlpha" type="matrix" values="0 0 0 0 0 0 0 0 0 0 0 0 0 0 0 0 0 0 127 0" result="hardAlpha"/>
<feOffset dy="1"/>
<feColorMatrix type="matrix" values="0 0 0 0 0.537255 0 0 0 0 0.541176 0 0 0 0 0.552941 0 0 0 1 0"/>
<feBlend mode="normal" in2="BackgroundImageFix" result="effect1_dropShadow_1_442"/>
<feBlend mode="normal" in="SourceGraphic" in2="effect1_dropShadow_1_442" result="shape"/>
</filter>
<filter id="filter12_d_1_442" x="322" y="583" width="32" height="43" filterUnits="userSpaceOnUse" color-interpolation-filters="sRGB">
<feFlood flood-opacity="0" result="BackgroundImageFix"/>
<feColorMatrix in="SourceAlpha" type="matrix" values="0 0 0 0 0 0 0 0 0 0 0 0 0 0 0 0 0 0 127 0" result="hardAlpha"/>
<feOffset dy="1"/>
<feColorMatrix type="matrix" values="0 0 0 0 0.537255 0 0 0 0 0.541176 0 0 0 0 0.552941 0 0 0 1 0"/>
<feBlend mode="normal" in2="BackgroundImageFix" result="effect1_dropShadow_1_442"/>
<feBlend mode="normal" in="SourceGraphic" in2="effect1_dropShadow_1_442" result="shape"/>
</filter>
<filter id="filter13_d_1_442" x="284" y="583" width="32" height="43" filterUnits="userSpaceOnUse" color-interpolation-filters="sRGB">
<feFlood flood-opacity="0" result="BackgroundImageFix"/>
<feColorMatrix in="SourceAlpha" type="matrix" values="0 0 0 0 0 0 0 0 0 0 0 0 0 0 0 0 0 0 127 0" result="hardAlpha"/>
<feOffset dy="1"/>
<feColorMatrix type="matrix" values="0 0 0 0 0.537255 0 0 0 0 0.541176 0 0 0 0 0.552941 0 0 0 1 0"/>
<feBlend mode="normal" in2="BackgroundImageFix" result="effect1_dropShadow_1_442"/>
<feBlend mode="normal" in="SourceGraphic" in2="effect1_dropShadow_1_442" result="shape"/>
</filter>
<filter id="filter14_d_1_442" x="247" y="583" width="32" height="43" filterUnits="userSpaceOnUse" color-interpolation-filters="sRGB">
<feFlood flood-opacity="0" result="BackgroundImageFix"/>
<feColorMatrix in="SourceAlpha" type="matrix" values="0 0 0 0 0 0 0 0 0 0 0 0 0 0 0 0 0 0 127 0" result="hardAlpha"/>
<feOffset dy="1"/>
<feColorMatrix type="matrix" values="0 0 0 0 0.537255 0 0 0 0 0.541176 0 0 0 0 0.552941 0 0 0 1 0"/>
<feBlend mode="normal" in2="BackgroundImageFix" result="effect1_dropShadow_1_442"/>
<feBlend mode="normal" in="SourceGraphic" in2="effect1_dropShadow_1_442" result="shape"/>
</filter>
<filter id="filter15_d_1_442" x="209" y="583" width="32" height="43" filterUnits="userSpaceOnUse" color-interpolation-filters="sRGB">
<feFlood flood-opacity="0" result="BackgroundImageFix"/>
<feColorMatrix in="SourceAlpha" type="matrix" values="0 0 0 0 0 0 0 0 0 0 0 0 0 0 0 0 0 0 127 0" result="hardAlpha"/>
<feOffset dy="1"/>
<feColorMatrix type="matrix" values="0 0 0 0 0.537255 0 0 0 0 0.541176 0 0 0 0 0.552941 0 0 0 1 0"/>
<feBlend mode="normal" in2="BackgroundImageFix" result="effect1_dropShadow_1_442"/>
<feBlend mode="normal" in="SourceGraphic" in2="effect1_dropShadow_1_442" result="shape"/>
</filter>
<filter id="filter16_d_1_442" x="172" y="583" width="32" height="43" filterUnits="userSpaceOnUse" color-interpolation-filters="sRGB">
<feFlood flood-opacity="0" result="BackgroundImageFix"/>
<feColorMatrix in="SourceAlpha" type="matrix" values="0 0 0 0 0 0 0 0 0 0 0 0 0 0 0 0 0 0 127 0" result="hardAlpha"/>
<feOffset dy="1"/>
<feColorMatrix type="matrix" values="0 0 0 0 0.537255 0 0 0 0 0.541176 0 0 0 0 0.552941 0 0 0 1 0"/>
<feBlend mode="normal" in2="BackgroundImageFix" result="effect1_dropShadow_1_442"/>
<feBlend mode="normal" in="SourceGraphic" in2="effect1_dropShadow_1_442" result="shape"/>
</filter>
<filter id="filter17_d_1_442" x="134" y="583" width="32" height="43" filterUnits="userSpaceOnUse" color-interpolation-filters="sRGB">
<feFlood flood-opacity="0" result="BackgroundImageFix"/>
<feColorMatrix in="SourceAlpha" type="matrix" values="0 0 0 0 0 0 0 0 0 0 0 0 0 0 0 0 0 0 127 0" result="hardAlpha"/>
<feOffset dy="1"/>
<feColorMatrix type="matrix" values="0 0 0 0 0.537255 0 0 0 0 0.541176 0 0 0 0 0.552941 0 0 0 1 0"/>
<feBlend mode="normal" in2="BackgroundImageFix" result="effect1_dropShadow_1_442"/>
<feBlend mode="normal" in="SourceGraphic" in2="effect1_dropShadow_1_442" result="shape"/>
</filter>
<filter id="filter18_d_1_442" x="97" y="583" width="32" height="43" filterUnits="userSpaceOnUse" color-interpolation-filters="sRGB">
<feFlood flood-opacity="0" result="BackgroundImageFix"/>
<feColorMatrix in="SourceAlpha" type="matrix" values="0 0 0 0 0 0 0 0 0 0 0 0 0 0 0 0 0 0 127 0" result="hardAlpha"/>
<feOffset dy="1"/>
<feColorMatrix type="matrix" values="0 0 0 0 0.537255 0 0 0 0 0.541176 0 0 0 0 0.552941 0 0 0 1 0"/>
<feBlend mode="normal" in2="BackgroundImageFix" result="effect1_dropShadow_1_442"/>
<feBlend mode="normal" in="SourceGraphic" in2="effect1_dropShadow_1_442" result="shape"/>
</filter>
<filter id="filter19_d_1_442" x="59" y="583" width="32" height="43" filterUnits="userSpaceOnUse" color-interpolation-filters="sRGB">
<feFlood flood-opacity="0" result="BackgroundImageFix"/>
<feColorMatrix in="SourceAlpha" type="matrix" values="0 0 0 0 0 0 0 0 0 0 0 0 0 0 0 0 0 0 127 0" result="hardAlpha"/>
<feOffset dy="1"/>
<feColorMatrix type="matrix" values="0 0 0 0 0.537255 0 0 0 0 0.541176 0 0 0 0 0.552941 0 0 0 1 0"/>
<feBlend mode="normal" in2="BackgroundImageFix" result="effect1_dropShadow_1_442"/>
<feBlend mode="normal" in="SourceGraphic" in2="effect1_dropShadow_1_442" result="shape"/>
</filter>
<filter id="filter20_d_1_442" x="22" y="583" width="32" height="43" filterUnits="userSpaceOnUse" color-interpolation-filters="sRGB">
<feFlood flood-opacity="0" result="BackgroundImageFix"/>
<feColorMatrix in="SourceAlpha" type="matrix" values="0 0 0 0 0 0 0 0 0 0 0 0 0 0 0 0 0 0 127 0" result="hardAlpha"/>
<feOffset dy="1"/>
<feColorMatrix type="matrix" values="0 0 0 0 0.537255 0 0 0 0 0.541176 0 0 0 0 0.552941 0 0 0 1 0"/>
<feBlend mode="normal" in2="BackgroundImageFix" result="effect1_dropShadow_1_442"/>
<feBlend mode="normal" in="SourceGraphic" in2="effect1_dropShadow_1_442" result="shape"/>
</filter>
<filter id="filter21_d_1_442" x="340" y="529" width="32" height="43" filterUnits="userSpaceOnUse" color-interpolation-filters="sRGB">
<feFlood flood-opacity="0" result="BackgroundImageFix"/>
<feColorMatrix in="SourceAlpha" type="matrix" values="0 0 0 0 0 0 0 0 0 0 0 0 0 0 0 0 0 0 127 0" result="hardAlpha"/>
<feOffset dy="1"/>
<feColorMatrix type="matrix" values="0 0 0 0 0.537255 0 0 0 0 0.541176 0 0 0 0 0.552941 0 0 0 1 0"/>
<feBlend mode="normal" in2="BackgroundImageFix" result="effect1_dropShadow_1_442"/>
<feBlend mode="normal" in="SourceGraphic" in2="effect1_dropShadow_1_442" result="shape"/>
</filter>
<filter id="filter22_d_1_442" x="303" y="529" width="32" height="43" filterUnits="userSpaceOnUse" color-interpolation-filters="sRGB">
<feFlood flood-opacity="0" result="BackgroundImageFix"/>
<feColorMatrix in="SourceAlpha" type="matrix" values="0 0 0 0 0 0 0 0 0 0 0 0 0 0 0 0 0 0 127 0" result="hardAlpha"/>
<feOffset dy="1"/>
<feColorMatrix type="matrix" values="0 0 0 0 0.537255 0 0 0 0 0.541176 0 0 0 0 0.552941 0 0 0 1 0"/>
<feBlend mode="normal" in2="BackgroundImageFix" result="effect1_dropShadow_1_442"/>
<feBlend mode="normal" in="SourceGraphic" in2="effect1_dropShadow_1_442" result="shape"/>
</filter>
<filter id="filter23_d_1_442" x="265" y="529" width="32" height="43" filterUnits="userSpaceOnUse" color-interpolation-filters="sRGB">
<feFlood flood-opacity="0" result="BackgroundImageFix"/>
<feColorMatrix in="SourceAlpha" type="matrix" values="0 0 0 0 0 0 0 0 0 0 0 0 0 0 0 0 0 0 127 0" result="hardAlpha"/>
<feOffset dy="1"/>
<feColorMatrix type="matrix" values="0 0 0 0 0.537255 0 0 0 0 0.541176 0 0 0 0 0.552941 0 0 0 1 0"/>
<feBlend mode="normal" in2="BackgroundImageFix" result="effect1_dropShadow_1_442"/>
<feBlend mode="normal" in="SourceGraphic" in2="effect1_dropShadow_1_442" result="shape"/>
</filter>
<filter id="filter24_d_1_442" x="228" y="529" width="32" height="43" filterUnits="userSpaceOnUse" color-interpolation-filters="sRGB">
<feFlood flood-opacity="0" result="BackgroundImageFix"/>
<feColorMatrix in="SourceAlpha" type="matrix" values="0 0 0 0 0 0 0 0 0 0 0 0 0 0 0 0 0 0 127 0" result="hardAlpha"/>
<feOffset dy="1"/>
<feColorMatrix type="matrix" values="0 0 0 0 0.537255 0 0 0 0 0.541176 0 0 0 0 0.552941 0 0 0 1 0"/>
<feBlend mode="normal" in2="BackgroundImageFix" result="effect1_dropShadow_1_442"/>
<feBlend mode="normal" in="SourceGraphic" in2="effect1_dropShadow_1_442" result="shape"/>
</filter>
<filter id="filter25_d_1_442" x="190" y="529" width="32" height="43" filterUnits="userSpaceOnUse" color-interpolation-filters="sRGB">
<feFlood flood-opacity="0" result="BackgroundImageFix"/>
<feColorMatrix in="SourceAlpha" type="matrix" values="0 0 0 0 0 0 0 0 0 0 0 0 0 0 0 0 0 0 127 0" result="hardAlpha"/>
<feOffset dy="1"/>
<feColorMatrix type="matrix" values="0 0 0 0 0.537255 0 0 0 0 0.541176 0 0 0 0 0.552941 0 0 0 1 0"/>
<feBlend mode="normal" in2="BackgroundImageFix" result="effect1_dropShadow_1_442"/>
<feBlend mode="normal" in="SourceGraphic" in2="effect1_dropShadow_1_442" result="shape"/>
</filter>
<filter id="filter26_d_1_442" x="153" y="529" width="32" height="43" filterUnits="userSpaceOnUse" color-interpolation-filters="sRGB">
<feFlood flood-opacity="0" result="BackgroundImageFix"/>
<feColorMatrix in="SourceAlpha" type="matrix" values="0 0 0 0 0 0 0 0 0 0 0 0 0 0 0 0 0 0 127 0" result="hardAlpha"/>
<feOffset dy="1"/>
<feColorMatrix type="matrix" values="0 0 0 0 0.537255 0 0 0 0 0.541176 0 0 0 0 0.552941 0 0 0 1 0"/>
<feBlend mode="normal" in2="BackgroundImageFix" result="effect1_dropShadow_1_442"/>
<feBlend mode="normal" in="SourceGraphic" in2="effect1_dropShadow_1_442" result="shape"/>
</filter>
<filter id="filter27_d_1_442" x="115" y="529" width="32" height="43" filterUnits="userSpaceOnUse" color-interpolation-filters="sRGB">
<feFlood flood-opacity="0" result="BackgroundImageFix"/>
<feColorMatrix in="SourceAlpha" type="matrix" values="0 0 0 0 0 0 0 0 0 0 0 0 0 0 0 0 0 0 127 0" result="hardAlpha"/>
<feOffset dy="1"/>
<feColorMatrix type="matrix" values="0 0 0 0 0.537255 0 0 0 0 0.541176 0 0 0 0 0.552941 0 0 0 1 0"/>
<feBlend mode="normal" in2="BackgroundImageFix" result="effect1_dropShadow_1_442"/>
<feBlend mode="normal" in="SourceGraphic" in2="effect1_dropShadow_1_442" result="shape"/>
</filter>
<filter id="filter28_d_1_442" x="78" y="529" width="32" height="43" filterUnits="userSpaceOnUse" color-interpolation-filters="sRGB">
<feFlood flood-opacity="0" result="BackgroundImageFix"/>
<feColorMatrix in="SourceAlpha" type="matrix" values="0 0 0 0 0 0 0 0 0 0 0 0 0 0 0 0 0 0 127 0" result="hardAlpha"/>
<feOffset dy="1"/>
<feColorMatrix type="matrix" values="0 0 0 0 0.537255 0 0 0 0 0.541176 0 0 0 0 0.552941 0 0 0 1 0"/>
<feBlend mode="normal" in2="BackgroundImageFix" result="effect1_dropShadow_1_442"/>
<feBlend mode="normal" in="SourceGraphic" in2="effect1_dropShadow_1_442" result="shape"/>
</filter>
<filter id="filter29_d_1_442" x="40" y="529" width="32" height="43" filterUnits="userSpaceOnUse" color-interpolation-filters="sRGB">
<feFlood flood-opacity="0" result="BackgroundImageFix"/>
<feColorMatrix in="SourceAlpha" type="matrix" values="0 0 0 0 0 0 0 0 0 0 0 0 0 0 0 0 0 0 127 0" result="hardAlpha"/>
<feOffset dy="1"/>
<feColorMatrix type="matrix" values="0 0 0 0 0.537255 0 0 0 0 0.541176 0 0 0 0 0.552941 0 0 0 1 0"/>
<feBlend mode="normal" in2="BackgroundImageFix" result="effect1_dropShadow_1_442"/>
<feBlend mode="normal" in="SourceGraphic" in2="effect1_dropShadow_1_442" result="shape"/>
</filter>
<filter id="filter30_d_1_442" x="3" y="529" width="32" height="43" filterUnits="userSpaceOnUse" color-interpolation-filters="sRGB">
<feFlood flood-opacity="0" result="BackgroundImageFix"/>
<feColorMatrix in="SourceAlpha" type="matrix" values="0 0 0 0 0 0 0 0 0 0 0 0 0 0 0 0 0 0 127 0" result="hardAlpha"/>
<feOffset dy="1"/>
<feColorMatrix type="matrix" values="0 0 0 0 0.537255 0 0 0 0 0.541176 0 0 0 0 0.552941 0 0 0 1 0"/>
<feBlend mode="normal" in2="BackgroundImageFix" result="effect1_dropShadow_1_442"/>
<feBlend mode="normal" in="SourceGraphic" in2="effect1_dropShadow_1_442" result="shape"/>
</filter>
<clipPath id="clip0_1_442">
<rect width="375" height="812" fill="white"/>
</clipPath>
</defs>
</svg>
