<svg width="15" height="13" viewBox="0 0 15 13" fill="none" xmlns="http://www.w3.org/2000/svg">
<path d="M12.253 2.66602C11.966 2.39202 11.625 2.17402 11.249 2.02502C10.874 1.87702 10.471 1.79999 10.065 1.79999C9.658 1.79999 9.256 1.87702 8.88 2.02502C8.505 2.17402 8.16401 2.39202 7.87601 2.66602L7.28 3.23602L6.68399 2.66602C6.10299 2.11202 5.316 1.79999 4.495 1.79999C3.674 1.79999 2.88701 2.11202 2.30701 2.66602C1.72601 3.22102 1.39999 3.97302 1.39999 4.75702C1.39999 5.54202 1.72601 6.29402 2.30701 6.84802L2.90302 7.41803L7.28 11.6L11.657 7.41803L12.253 6.84802C12.541 6.57402 12.769 6.24798 12.924 5.88898C13.08 5.52998 13.16 5.14602 13.16 4.75702C13.16 4.36902 13.08 3.98398 12.924 3.62598C12.769 3.26698 12.541 2.94102 12.253 2.66602Z" stroke="#545589" stroke-width="2" stroke-linecap="round" stroke-linejoin="round"/>
</svg>
