<svg width="16" height="18" viewBox="0 0 16 18" fill="none" xmlns="http://www.w3.org/2000/svg">
<path d="M12.522 5.26038C13.6986 5.26038 14.6524 4.30655 14.6524 3.12994C14.6524 1.95334 13.6986 0.999512 12.522 0.999512C11.3454 0.999512 10.3916 1.95334 10.3916 3.12994C10.3916 4.30655 11.3454 5.26038 12.522 5.26038Z" stroke="#545589" stroke-width="2"/>
<path d="M12.522 17.0004C13.6986 17.0004 14.6524 16.0465 14.6524 14.8699C14.6524 13.6933 13.6986 12.7395 12.522 12.7395C11.3454 12.7395 10.3916 13.6933 10.3916 14.8699C10.3916 16.0465 11.3454 17.0004 12.522 17.0004Z" stroke="#545589" stroke-width="2"/>
<path d="M3.13 10.7394C4.30661 10.7394 5.26044 9.78555 5.26044 8.60895C5.26044 7.43234 4.30661 6.47852 3.13 6.47852C1.9534 6.47852 0.999573 7.43234 0.999573 8.60895C0.999573 9.78555 1.9534 10.7394 3.13 10.7394Z" stroke="#545589" stroke-width="2"/>
<path d="M10.401 4.75903L5.228 8.01602" stroke="#545589" stroke-width="2"/>
<path d="M10.118 13.494L4.94501 10.238" stroke="#545589" stroke-width="2"/>
</svg>
